<?xml version="1.0" encoding="UTF-8"?>
<svg width="543px" height="372px" viewBox="0 0 543 372" version="1.1" xmlns="http://www.w3.org/2000/svg" xmlns:xlink="http://www.w3.org/1999/xlink">
    <!-- Generator: Sketch 52.2 (67145) - http://www.bohemiancoding.com/sketch -->
    <title>easilyAccessibleFileStorage</title>
    <desc>Created with Sketch.</desc>
    <defs>
        <linearGradient x1="50.0019333%" y1="100%" x2="50.0019333%" y2="-0.00248366987%" id="linearGradient-1">
            <stop stop-color="#808080" stop-opacity="0.25" offset="0%"></stop>
            <stop stop-color="#808080" stop-opacity="0.12" offset="54%"></stop>
            <stop stop-color="#808080" stop-opacity="0.1" offset="100%"></stop>
        </linearGradient>
        <linearGradient x1="50.0197803%" y1="99.9899581%" x2="50.0197803%" y2="0.00209562802%" id="linearGradient-2">
            <stop stop-color="#808080" stop-opacity="0.25" offset="0%"></stop>
            <stop stop-color="#808080" stop-opacity="0.12" offset="54%"></stop>
            <stop stop-color="#808080" stop-opacity="0.1" offset="100%"></stop>
        </linearGradient>
    </defs>
    <g id="Page-1" stroke="none" stroke-width="1" fill="none" fill-rule="evenodd">
        <g id="Illustrations" transform="translate(-1355.000000, -1280.000000)">
            <g id="easilyAccessibleFileStorage" transform="translate(1355.000000, 1280.000000)">
                <g id="Group">
                    <path d="M53.0123818,281.537322 C50.6912202,286.530732 54.0133489,291.919928 52.8608841,297.075989 C51.4054238,303.582061 43.0622274,308.645953 34.0751657,311.877302 C25.088104,315.10865 15.0513795,317.071315 6.29156441,320.552064 C2.50412119,322.053882 -1.44564102,324.824384 0.523829449,327.372595 C1.20556923,328.256336 2.48247866,328.874413 3.73233492,329.454538 C29.2488809,341.252214 60.7874617,347.660694 92.2989892,347.454669 C125.62849,347.232378 158.265429,339.864252 191.567876,340.710041 C234.517482,341.794387 276.060324,356.465578 318.533794,352.236631 C336.562024,350.431196 353.302523,345.313087 370.860027,342.114268 C396.679569,337.413632 423.835537,336.941942 450.574886,335.39675 C470.653745,334.2365 493.600241,331.227442 503.193293,319.917722 C510.129725,311.741759 507.218804,300.94168 497.447201,294.018136 C487.675597,287.094591 472.065921,284.134329 457.646583,285.478917 C449.893146,286.200007 442.188404,288.070502 434.434967,287.327726 C429.93332,286.893988 425.777954,285.603617 421.671283,284.334933 C389.905456,274.467391 356.997985,264.621537 321.736889,263.190201 C264.384177,260.842593 211.224706,280.837919 155.349098,289.485573 C146.648799,290.830161 137.201834,291.86571 128.983082,289.610272 C120.326069,287.230135 114.644904,281.607805 105.971659,279.23851 C101.854167,278.110791 97.2659505,277.785488 93.2187969,276.560178 C82.0945351,273.187864 87.2671004,268.552288 71.8251533,271.680624 C63.7578993,273.328829 55.6094857,275.969209 53.0123818,281.537322 Z" id="Path" fill="#1D5DCC" opacity="0.1"></path>
                    <path d="M60.1131778,110 C60.1131778,110 90.6542915,140.301814 73.4228812,185.265446 C56.191471,230.229078 103,305 103,305 C103,305 102.496094,304.929354 101.570439,304.766324 C38.8121751,293.778112 7.64665549,222.604715 42.5257466,169.745005 C55.4903837,150.067302 66.1381464,127.009447 60.1131778,110 Z" id="Path" fill="#1D5DCC"></path>
                    <path d="M60.1131778,110 C60.1131778,110 90.6542915,140.301814 73.4228812,185.265446 C56.191471,230.229078 103,305 103,305 C103,305 102.496094,304.929354 101.570439,304.766324 C38.8121751,293.778112 7.64665549,222.604715 42.5257466,169.745005 C55.4903837,150.067302 66.1381464,127.009447 60.1131778,110 Z" id="Path" fill="#000000" opacity="0.1"></path>
                    <path d="M58.0829048,110 C58.0829048,110 75.3506726,147.143633 58.0829048,177.445448 C40.8151369,207.747262 55.1208353,292.78363 101,305" id="Path" stroke="#535461"></path>
                    <path d="M5,233.375787 C5,233.375787 39.5075872,227.90818 42.6530218,258.684387 C45.7984565,289.460595 109,293.729971 109,293.729971 C109,293.729971 108.58784,294.010638 107.812327,294.5126 C55.6306513,328.597438 5.74297335,316.231902 13.2594775,270.958168 C16.0578297,254.112755 15.8246337,237.218765 5,233.375787 Z" id="Path" fill="#1D5DCC"></path>
                    <path d="M5,233.375787 C5,233.375787 39.5075872,227.90818 42.6530218,258.684387 C45.7984565,289.460595 109,293.729971 109,293.729971 C109,293.729971 108.58784,294.010638 107.812327,294.5126 C55.6306513,328.597438 5.74297335,316.231902 13.2594775,270.958168 C16.0578297,254.112755 15.8246337,237.218765 5,233.375787 Z" id="Path" fill="#F5F5F5" opacity="0.2"></path>
                    <path d="M5,234 C5,234 31.7850029,239.786468 29.5831986,263.759742 C27.3813944,287.733016 69.3566773,316.467848 109,293.690302" id="Path" stroke="#535461"></path>
                    <polygon id="Path" fill="#1D5DCC" points="365 305 82 305 82 128 118.192079 128 133.081978 146.416185 365 146.416185"></polygon>
                    <polygon id="Path" fill="#000000" opacity="0.1" points="365 305 82 305 82 128 118.192079 128 133.081978 146.416185 365 146.416185"></polygon>
                    <polygon id="Rectangle" fill="#F1F1F4" transform="translate(235.500000, 177.000000) rotate(-19.885165) translate(-235.500000, -177.000000) " points="168.233489 71.152124 303 71 302.766511 282.847876 168 283"></polygon>
                    <polygon id="Rectangle" fill="#FFFFFF" transform="translate(179.500000, 112.500000) rotate(-19.885165) translate(-179.500000, -112.500000) " points="160.010591 108.041189 199 108 198.989409 116.958811 160 117"></polygon>
                    <polygon id="Rectangle" fill="#FFFFFF" transform="translate(216.000000, 125.000000) rotate(-19.650000) translate(-216.000000, -125.000000) " points="174.008522 121.09407 258 121 257.991478 128.90593 174 129"></polygon>
                    <polygon id="Rectangle" fill="#FFFFFF" transform="translate(221.000000, 141.000000) rotate(-19.650000) translate(-221.000000, -141.000000) " points="179.008522 137.09407 263 137 262.991478 144.90593 179 145"></polygon>
                    <polygon id="Rectangle" fill="#FFFFFF" transform="translate(227.000000, 158.000000) rotate(-19.650000) translate(-227.000000, -158.000000) " points="185.008522 154.09407 269 154 268.991478 161.90593 185 162"></polygon>
                    <polygon id="Rectangle" fill="#FFFFFF" transform="translate(233.000000, 175.000000) rotate(-19.650000) translate(-233.000000, -175.000000) " points="191.008522 171.09407 275 171 274.991478 178.90593 191 179"></polygon>
                    <polygon id="Rectangle" fill="#FFFFFF" transform="translate(239.000000, 191.000000) rotate(-19.650000) translate(-239.000000, -191.000000) " points="197.008522 187.09407 281 187 280.991478 194.90593 197 195"></polygon>
                    <polygon id="Rectangle" fill="#FFFFFF" transform="translate(246.000000, 208.000000) rotate(-19.650000) translate(-246.000000, -208.000000) " points="204.008522 204.09407 288 204 287.991478 211.90593 204 212"></polygon>
                    <polygon id="Rectangle" fill="#FFFFFF" transform="translate(292.000000, 232.000000) rotate(-19.650000) translate(-292.000000, -232.000000) " points="281.024266 221.024261 303 221 302.975734 242.975739 281 243"></polygon>
                    <polygon id="Rectangle" fill="url(#linearGradient-1)" transform="translate(168.000000, 181.000000) rotate(-59.280000) translate(-168.000000, -181.000000) " points="98.3346796 72.2131452 238 72 237.66532 289.786855 98 290"></polygon>
                    <polygon id="Rectangle" fill="#F1F1F4" transform="translate(167.500000, 181.000000) rotate(-59.280000) translate(-167.500000, -181.000000) " points="100.318468 75.2100499 235 75 234.681532 286.78995 100 287"></polygon>
                    <polygon id="Rectangle" fill="#FFFFFF" transform="translate(83.500000, 166.500000) rotate(-59.280000) translate(-83.500000, -166.500000) " points="64.0152659 162.053441 103 162 102.984734 170.946559 64 171"></polygon>
                    <polygon id="Rectangle" fill="#FFFFFF" transform="translate(118.000000, 152.000000) rotate(-59.280000) translate(-118.000000, -152.000000) " points="76.0117524 148.130375 160 148 159.988248 155.869625 76 156"></polygon>
                    <polygon id="Rectangle" fill="#FFFFFF" transform="translate(134.000000, 161.000000) rotate(-59.280000) translate(-134.000000, -161.000000) " points="92.0117524 157.130375 176 157 175.988248 164.869625 92 165"></polygon>
                    <polygon id="Rectangle" fill="#FFFFFF" transform="translate(149.000000, 170.000000) rotate(-59.331073) translate(-149.000000, -170.000000) " points="107.01174 166.130257 191 166 190.98826 173.869743 107 174"></polygon>
                    <polygon id="Rectangle" fill="#FFFFFF" transform="translate(165.000000, 180.000000) rotate(-59.280000) translate(-165.000000, -180.000000) " points="123.011752 176.130375 207 176 206.988248 183.869625 123 184"></polygon>
                    <polygon id="Rectangle" fill="#FFFFFF" transform="translate(179.000000, 189.000000) rotate(-59.280000) translate(-179.000000, -189.000000) " points="137.011752 185.130375 221 185 220.988248 192.869625 137 193"></polygon>
                    <polygon id="Rectangle" fill="#FFFFFF" transform="translate(194.000000, 197.000000) rotate(-59.280000) translate(-194.000000, -197.000000) " points="152.011752 193.130375 236 193 235.988248 200.869625 152 201"></polygon>
                    <polygon id="Rectangle" fill="#FFFFFF" transform="translate(246.000000, 185.000000) rotate(-59.331073) translate(-246.000000, -185.000000) " points="235.033739 174.033459 257 174 256.966261 195.966541 235 196"></polygon>
                    <path d="M516.986823,68.8391444 C516.986823,68.5719546 516.959938,68.3174022 516.90617,68.0754871 C516.852401,67.833572 516.805802,67.5537449 516.766372,67.2360056 C516.666004,66.6871834 516.551298,66.1564145 516.422254,65.6436989 C516.357732,65.3873412 516.291417,65.1363994 516.22331,64.8908737 C515.45221,62.0459041 514.07416,59.4046568 512.185299,57.1513965 L511.862688,56.7831079 C511.647614,56.5448035 511.434333,56.3191364 511.222843,56.1061067 C511.011354,55.893077 510.803449,55.6962953 510.599129,55.5157617 C510.394809,55.3316174 510.195866,55.1637211 510.002299,55.0012408 C509.620543,54.6871123 509.260294,54.4217278 508.92693,54.2050875 C508.593565,53.9884471 508.475275,53.907207 508.287085,53.7934708 C507.827509,53.5192746 507.313369,53.350962 506.781568,53.3006139 L503.464054,52.9756534 L498.979764,52.5315406 L482.790079,46.2327219 L482.150234,46.4601943 C481.677043,45.1532008 481.27674,43.8205898 480.951198,42.4685955 C481.441326,42.2554838 481.878396,41.9354679 482.230887,41.5316259 C482.613494,41.2338378 482.916531,40.8448376 483.11269,40.39968 C483.52133,39.4572944 482.741687,37.4425389 482.897616,36.294345 C483.155705,34.4474858 484.112783,32.6602028 484.892426,30.986656 C486.559248,27.3904258 487.774416,23.4963152 487.580849,19.5480445 C487.387283,15.5997738 485.586039,11.5973429 482.257771,9.38761119 C480.53718,8.24483324 478.493979,7.6328242 476.724996,6.59295043 C475.332393,5.78054905 474.106472,4.72442725 472.778391,3.80912169 C466.125668,-0.623426288 457.656295,-1.22941307 450.448348,2.21139897 C447.082442,3.8741138 444.211206,6.35464603 441.033489,8.34232141 C437.855773,10.3299968 434.113488,11.8681434 430.398087,11.2777984 C430.345279,11.427068 430.307452,11.581292 430.285173,11.7381592 L429.973316,11.7002471 C429.333472,13.4496181 430.903511,15.171909 432.349882,16.3688471 C435.092074,18.6327389 438.205268,20.8966308 441.786248,20.9724549 C443.168098,21.004951 444.6306,20.7124865 445.888782,21.2811674 C446.161688,21.4079688 446.41811,21.5680354 446.652294,21.7577762 C445.028054,28.2756759 447.194188,35.158863 452.249591,39.5439505 L443.980001,36.5651454 C443.980001,36.5651454 443.635883,36.7438738 443.098199,37.0796663 L431.607878,29.4268453 C431.607878,29.4268453 408.578844,21.026615 402.180397,34.0467012 C395.78195,47.0667873 429.903417,40.3455199 429.903417,40.3455199 L437.205175,44.3641987 C436.963302,45.874068 437.246291,47.4217541 438.006325,48.7457502 L457.900657,61.0617551 C453.878776,62.3020213 447.270631,64.3113607 446.071595,64.3113607 C444.367134,64.3113607 439.673147,65.9903235 436.688998,72.711591 C433.704848,79.4328584 423.042561,112.199714 413.659964,117.664467 C404.277367,123.129221 379.538496,159.671035 379.538496,159.671035 L379.65141,159.958083 C379.210509,160.073625 378.778569,160.201804 378.35559,160.34262 C372.16684,162.357376 368.005161,166.608943 365.494173,170.048109 C364.643058,171.237946 364.484704,172.794055 365.078476,174.133077 C365.672248,175.472099 366.928454,176.39177 368.376163,176.54732 C378.140516,177.78217 383.474348,173.297714 386.039104,169.874796 C386.205786,169.65274 386.361715,169.4361 386.506889,169.224875 C387.270802,169.551467 388.125952,169.589922 388.915717,169.333195 L400.857693,159.671035 C400.857693,159.671035 391.512734,168.878251 396.99174,177.267649 L396.577723,177.847162 C387.339552,191.03297 380.553375,205.797875 376.54897,221.424372 C376.54897,221.424372 371.430212,225.215579 371.005441,240.326244 C370.58067,255.43691 365.461912,279.814367 365.461912,279.814367 C365.461912,279.814367 362.047615,308.800849 364.182223,317.623528 C364.182223,317.623528 364.429558,317.975568 364.881213,318.511753 C364.719908,318.701314 364.547849,318.907122 364.343528,319.118346 C362.483139,321.133102 359.12261,323.911515 355.202889,323.082865 C349.229213,321.820935 349.229213,332.322577 357.762268,333.167474 C363.257405,333.709075 374.048736,336.167943 381.044013,337.846906 C382.586319,338.243336 384.223675,337.859307 385.433488,336.817388 C386.643301,335.775469 387.274351,334.205895 387.125227,332.609625 C386.705833,328.845499 385.947697,324.290635 384.565848,321.046446 C384.479818,320.846053 384.393789,320.651077 384.302382,320.456101 C384.555094,320.223212 384.802429,319.979492 385.055141,319.719523 C385.055141,319.719523 385.055141,301.234684 388.039291,296.192379 C388.039291,296.192379 396.142198,257.966186 395.717427,248.304026 C395.384063,240.721613 416.73552,211.301851 426.032088,198.866694 L425.956812,198.395501 C428.333378,195.221719 429.838895,193.271956 429.838895,193.271956 L437.086884,239.058898 C437.086884,239.058898 440.565704,249.143507 444.829543,254.592013 C444.829543,254.592013 463.169966,289.46028 465.299198,300.378954 C466.912252,308.660033 470.245896,313.556105 471.751413,315.440876 C471.573977,315.619604 471.391165,315.798333 471.213729,315.982477 C469.272687,317.764344 466.406828,319.551627 463.148459,318.86921 C457.19629,317.601864 457.19629,328.103506 465.729345,328.942987 C471.224482,329.484588 482.015813,331.943456 489.01109,333.622419 C490.553396,334.018849 492.190752,333.634819 493.400565,332.592901 C494.610378,331.550982 495.241428,329.981408 495.092304,328.385138 C494.608388,324.014419 493.656686,318.576745 491.817804,315.386716 C491.663668,315.115916 491.502363,314.861363 491.333888,314.623059 C491.982985,314.361812 492.562839,313.95203 493.027595,313.426121 C493.027595,313.426121 481.929784,286.93642 481.929784,279.792703 C481.929784,279.792703 477.235797,252.485185 461.460129,242.42224 C461.460129,242.42224 462.954893,208.274302 467.444559,189.264109 C467.555681,188.794722 467.668595,188.334361 467.783301,187.883027 C471.821312,187.249354 475.972238,186.39904 480.225323,185.288759 L480.650094,172.685705 L482.800833,182.770314 L506.663277,168.055017 C506.663277,168.055017 506.45358,165.406589 506.050317,161.344582 C505.845997,159.313578 505.598662,156.930534 505.297558,154.347098 C505.060977,152.278182 504.786758,150.084699 504.491031,147.847887 C504.415756,147.288233 504.338687,146.724968 504.259827,146.158092 C503.94797,143.8942 503.603852,141.603228 503.232849,139.361 C503.093051,138.519714 502.949669,137.687454 502.802702,136.86422 C502.609135,135.781018 502.404815,134.697816 502.195118,133.647111 C502.091166,133.123563 501.983629,132.607237 501.872507,132.098132 C501.761386,131.589027 501.650264,131.090754 501.539143,130.603314 C501.428021,130.115873 501.315107,129.637459 501.200401,129.168071 L501.028342,128.474822 C500.910052,128.019877 500.791761,127.575764 500.67347,127.142484 C500.172719,125.346729 499.882188,123.498145 499.807798,121.634402 C499.779122,120.912268 499.779122,120.17208 499.807798,119.413838 C499.836475,118.655597 499.908166,117.91902 500.022872,117.204107 C500.073056,116.843039 500.133994,116.481972 500.205685,116.120905 C500.480622,114.657474 500.885512,113.221878 501.415475,111.831426 C501.680733,111.134566 501.978252,110.446733 502.308032,109.767926 C503.082298,108.181035 503.921086,106.458744 504.759874,104.644381 C505.186437,103.738102 505.616585,102.811965 506.050317,101.865969 C506.484049,100.919972 506.921366,99.9595333 507.362267,98.9846517 C511.513193,89.7232759 515.61035,79.4003624 516.707227,72.6249348 C516.82014,71.9100216 516.90617,71.2384365 516.949185,70.6047634 C517.000295,70.0176995 517.012868,69.427877 516.986823,68.8391444 Z" id="Path" fill="url(#linearGradient-2)"></path>
                    <path d="M446,40.5775264 L431.735294,30.7206835 C431.735294,30.7206835 409.078621,22.1502421 402.78601,35.4319203 C396.493399,48.7135985 430.050357,41.8583591 430.050357,41.8583591 L444.315063,50 L446,40.5775264 Z" id="Path" fill="#F7BBC3"></path>
                    <polygon id="Rectangle" fill="#F1F1F4" transform="translate(417.500000, 115.000000) rotate(-57.570000) translate(-417.500000, -115.000000) " points="350.328447 9.21634122 485 9 484.671553 220.783659 350 221"></polygon>
                    <polygon id="Rectangle" fill="#FFFFFF" transform="translate(333.500000, 98.500000) rotate(-57.570000) translate(-333.500000, -98.500000) " points="314.015749 94.0550107 353 94 352.984251 102.944989 314 103"></polygon>
                    <polygon id="Rectangle" fill="#FFFFFF" transform="translate(370.000000, 85.000000) rotate(-57.570000) translate(-370.000000, -85.000000) " points="328.012135 81.1340903 412 81 411.987865 88.8659097 328 89"></polygon>
                    <polygon id="Rectangle" fill="#FFFFFF" transform="translate(384.000000, 94.000000) rotate(-57.570000) translate(-384.000000, -94.000000) " points="342.012135 90.1340903 426 90 425.987865 97.8659097 342 98"></polygon>
                    <polygon id="Rectangle" fill="#FFFFFF" transform="translate(399.000000, 104.000000) rotate(-57.570000) translate(-399.000000, -104.000000) " points="357.012135 100.13409 441 100 440.987865 107.86591 357 108"></polygon>
                    <polygon id="Rectangle" fill="#FFFFFF" transform="translate(415.000000, 116.000000) rotate(-57.264774) translate(-415.000000, -116.000000) " points="373.012198 112.134704 457 112 456.987802 119.865296 373 120"></polygon>
                    <polygon id="Rectangle" fill="#FFFFFF" transform="translate(429.000000, 124.000000) rotate(-57.570000) translate(-429.000000, -124.000000) " points="387.012135 120.13409 471 120 470.987865 127.86591 387 128"></polygon>
                    <polygon id="Rectangle" fill="#FFFFFF" transform="translate(445.000000, 135.000000) rotate(-57.264774) translate(-445.000000, -135.000000) " points="403.012198 131.134704 487 131 486.987802 138.865296 403 139"></polygon>
                    <polygon id="Rectangle" fill="#FFFFFF" transform="translate(496.000000, 121.000000) rotate(-57.570000) translate(-496.000000, -121.000000) " points="485.034835 110.03449 507 110 506.965165 131.96551 485 132"></polygon>
                    <path d="M487.913452,332.859512 C480.947965,331.183246 470.201687,328.734157 464.731958,328.195357 C456.237596,327.357224 456.237596,316.891449 462.181994,318.148648 C465.405325,318.828951 468.253337,317.060164 470.190648,315.269608 C470.783198,314.712747 471.338164,314.118253 471.851988,313.489936 C472.559571,312.655238 473.531794,312.080041 474.61169,311.85721 C477.796386,311.171465 484.425189,310.137405 488.504028,312.303488 C489.44831,312.877939 490.212545,313.699337 490.711789,314.676384 C492.544231,317.88197 493.471491,323.297178 493.973756,327.656558 C494.138682,329.224768 493.519246,330.774004 492.313354,331.809299 C491.107462,332.844594 489.466019,333.23639 487.913452,332.859512 Z" id="Path" fill="#B77983"></path>
                    <path d="M382.903046,337.856402 C375.939982,336.17954 365.197442,333.729579 359.729616,333.190588 C351.238209,332.352157 351.238209,321.882657 357.180539,323.140304 C361.042777,323.967846 364.413959,321.191224 366.262316,319.1877 C366.488533,318.942704 366.69268,318.708597 366.869239,318.490822 C367.576576,317.655827 368.548461,317.080425 369.627981,316.857515 C372.811569,316.171526 379.438066,315.137098 383.515486,317.303952 C384.707263,317.940942 385.661787,319.334698 386.4232,321.115003 C387.797053,324.348951 388.552948,328.889545 388.972277,332.640708 C389.142254,334.213697 388.523378,335.769523 387.314434,336.808449 C386.105491,337.847375 384.45871,338.238578 382.903046,337.856402 Z" id="Path" fill="#B77983"></path>
                    <path d="M387,320.799333 C376.937004,330.479766 368.30923,320.62035 367,318.99416 C367.224596,318.764038 367.42728,318.544145 367.602575,318.339593 C368.304844,317.555294 369.269764,317.014827 370.34155,316.805451 C373.502328,316.161112 380.081348,315.189489 384.129554,317.224783 C385.296357,317.797529 386.244043,319.106663 387,320.799333 Z" id="Path" fill="#000000" opacity="0.1"></path>
                    <path d="M491,314.677899 C486.695453,317.65301 472.302125,316.92017 472.302125,316.92017 C471.829274,316.406304 471.394069,315.857944 471,315.279484 C471.577301,314.723427 472.118311,314.129698 472.619586,313.502075 C473.309385,312.663307 474.257172,312.085306 475.309927,311.861389 C478.414582,311.172301 484.876782,310.1332 488.853107,312.309843 C489.769452,312.883411 490.51234,313.702827 491,314.677899 Z" id="Path" fill="#000000" opacity="0.1"></path>
                    <path d="M491,313.233495 C488.083432,316.987086 471.433562,316.157173 471.433562,316.157173 C471.433562,316.157173 466.439142,311.150578 464.355879,300.296625 C462.272616,289.442673 444.372789,254.808748 444.372789,254.808748 C440.211674,249.384484 436.878453,239.365869 436.878453,239.365869 L429.800771,193.877992 C429.800771,193.877992 395.662314,238.948201 396.078967,248.549148 C396.49562,258.150095 388.584632,296.114518 388.584632,296.114518 C385.668064,301.121114 385.668064,319.482247 385.668064,319.482247 C374.845919,330.748443 365.684973,317.393905 365.684973,317.393905 C363.60171,308.628295 366.934931,279.836302 366.934931,279.836302 C366.934931,279.836302 371.929351,255.633236 372.346003,240.608025 C372.762656,225.582814 377.757076,221.829224 377.757076,221.829224 C381.646041,206.345539 388.267085,191.684211 397.30728,178.538173 C399.823429,174.925614 401.484628,173 401.484628,173 L468.928235,180.930274 C467.846021,183.099979 466.877439,186.208083 466.027901,189.885734 C461.644932,208.767596 460.189353,242.696367 460.189353,242.696367 C475.594677,252.720407 480.172444,279.841726 480.172444,279.841726 C480.172444,286.936663 491,313.233495 491,313.233495 Z" id="Path" fill="#8499F0"></path>
                    <g opacity="0.05" transform="translate(374.000000, 173.000000)" fill="#000000" id="Path">
                        <path d="M51.5339171,26.3898208 L50.6712442,20.8423297 C50.6712442,20.8423297 16.654977,65.8121864 17.0701382,75.3917563 C17.4852995,84.9713262 9.60801843,122.856631 9.60801843,122.856631 C6.7018894,127.852079 6.7018894,146.17233 6.7018894,146.17233 C4.44276498,148.526631 2.25373272,149.803907 0.231843318,150.350538 C3.49921659,151.211075 7.47290323,150.583262 11.7053917,146.17233 C11.7053917,146.17233 11.7053917,127.852079 14.6115207,122.856631 C14.6115207,122.856631 22.4941935,84.9713262 22.0790323,75.3863441 C21.7285714,67.8958781 42.4974194,38.7187814 51.5339171,26.3898208 Z"></path>
                        <path d="M105.844562,106.620072 C105.844562,106.620072 101.28318,79.5591398 85.9329954,69.5628315 C85.9329954,69.5628315 87.3833641,35.7150179 91.7506452,16.8697849 C92.6025346,13.2003226 93.5568664,10.104552 94.6405991,7.93426523 L27.4437788,0 C27.4437788,0 27.2874194,0.184014337 27.001659,0.541218638 L89.669447,7.91802867 C88.591106,10.0829032 87.6259908,13.184086 86.7794931,16.8535484 C82.412212,35.6933692 80.9618433,69.546595 80.9618433,69.546595 C96.3066359,79.5591398 100.868018,106.620072 100.868018,106.620072 C100.868018,113.699211 111.651429,139.932079 111.651429,139.932079 C109.942258,142.140251 103.472212,142.75724 98.4471429,142.892545 C102.431613,142.995376 114.223272,143.033262 116.627972,139.932079 C116.633364,139.937491 105.844562,113.699211 105.844562,106.620072 Z"></path>
                    </g>
                    <path d="M390,166.937525 C389.491949,168.14419 388.821725,169.28025 388.00678,170.31612 C385.478394,173.620461 380.22503,177.996193 370.602964,176.797508 C369.163862,176.616488 367.927859,175.715841 367.346399,174.424523 C366.764939,173.133206 366.923173,171.640326 367.763308,170.49115 C370.231624,167.149681 374.316361,163.017929 380.432543,161.060784 C382.169789,160.499544 383.970259,160.143389 385.795125,160 L390,166.937525 Z" id="Path" fill="#F7BBC3"></path>
                    <path d="M477,49.4114314 L443.684186,37 C443.684186,37 434.126813,42.0756541 437.868767,49.2684553 L470.266642,70 L477,49.4114314 Z" id="Path" fill="#D39999"></path>
                    <path d="M477,49.4114314 L443.684186,37 C443.684186,37 434.126813,42.0756541 437.868767,49.2684553 L470.266642,70 L477,49.4114314 Z" id="Path" fill="#000000" opacity="0.1"></path>
                    <path d="M478.122367,30.8117362 C478.122367,30.8117362 477.700711,50.1406523 486.550024,56.7208225 C495.399337,63.3009928 460.850874,67 460.850874,67 C460.850874,67 466.326934,47.2594892 460.850874,36.9803117 C455.374813,26.7011343 478.122367,30.8117362 478.122367,30.8117362 Z" id="Path" fill="#F7BBC3"></path>
                    <path d="M469,181.258483 C467.927168,183.517986 466.966984,186.754723 466.124811,190.584581 C426.210109,197.001569 398.429133,179.518666 398.429133,179.518666 C398.278936,179.264472 398.134104,179.015926 398,178.767381 C400.494334,175.005309 402.14113,173 402.14113,173 L469,181.258483 Z" id="Path" fill="#000000" opacity="0.1"></path>
                    <path d="M390,166.399281 C389.522082,167.685278 388.89161,168.896027 388.125,170 C384.467466,169.332991 381.539384,161.634121 381,160.130524 C382.634207,159.532386 384.32789,159.152816 386.044521,159 L390,166.399281 Z" id="Path" fill="#000000" opacity="0.1"></path>
                    <path d="M481.60456,48 L466.637342,53.4161309 L460.401902,61.7515562 C460.401902,61.7515562 447.514965,65.9165609 445.85074,65.9165609 C444.186515,65.9165609 439.6153,67.5847292 436.702906,74.2519863 C433.790512,80.9192434 423.405316,113.410612 414.257483,118.826743 C405.109649,124.242874 381,160.530951 381,160.530951 C381,160.530951 385.155159,171.780255 390.147834,170.117502 L401.786602,160.530951 C401.786602,160.530951 392.638768,169.70046 398.047499,178.03047 C398.047499,178.03047 432.137094,198.449283 479.097416,185.948853 L479.513472,173.448423 L481.593753,183.4466 L504.909113,168.844712 C504.909113,168.844712 502.823428,141.948206 499.068115,128.256227 C497.516757,122.499994 498.092427,116.37574 500.689114,111.011266 C506.724631,98.4025138 516.039968,77.344597 514.905269,69.6645234 C513.565244,60.6141688 508.464502,56.6658094 506.519304,55.4959251 C506.073822,55.2254832 505.573383,55.0588917 505.055003,55.0084733 L497.447117,54.2447989 L481.60456,48 Z" id="Path" fill="#D39999"></path>
                    <path d="M455,89 C455,89 446.838515,127.964929 437.865655,134.249419 C428.892794,140.533909 404.816679,160.645367 404,164" id="Path" fill="#000000" opacity="0.05"></path>
                    <path d="M452,89 C452,89 443.838515,127.956443 434.865655,134.239564 C425.892794,140.522686 401.816679,160.629764 401,164" id="Path" fill="#D39999"></path>
                    <path d="M460,61 C460,61 488.688915,50.7756047 497,53.4443452" id="Path" fill="#000000" opacity="0.1"></path>
                    <g opacity="0.05" transform="translate(480.000000, 48.000000)" fill="#000000" id="Path">
                        <path d="M21.096,62.7023904 C27.2824615,50.1812749 36.8307692,29.2697211 35.6676923,21.6430279 C34.2941538,12.6555777 29.0658462,8.73466135 27.072,7.57290837 C26.6153766,7.30434613 26.1024213,7.13891253 25.5710769,7.08884462 L22.248,6.76613546 C22.5953226,6.84738812 22.9277892,6.9797984 23.2338462,7.15876494 C25.2276923,8.34203187 30.4338462,12.2414343 31.8295385,21.2288845 C32.9926154,28.8501992 23.4443077,49.7671315 17.2578462,62.288247 C14.596218,67.6154347 14.0061509,73.6971224 15.5963077,79.4133466 C19.4732308,93.0101594 21.5833846,119.719721 21.5833846,119.719721 L1.03569231,132.19243 L1.55630769,134.618127 L25.4658462,120.128486 C25.4658462,120.128486 23.328,93.4189243 19.4787692,79.8221116 C17.876246,74.1127022 18.4505371,68.0333571 21.096,62.7023904 Z"></path>
                        <polygon points="13.9347692 5.92171315 17.6289231 6.27669323 1.57846154 0.123705179 0.138461538 0.629282869"></polygon>
                    </g>
                    <path d="M452,129 C452,129 465.034712,121.713092 469.237518,123.428969 C473.440325,125.144847 489,123 489,123" id="Path" fill="#000000" opacity="0.05"></path>
                    <path d="M477.455722,35.3009769 C476.950531,31.1860387 479,31.8104846 479,31.8104846 C479,31.8104846 455.146934,27.7062207 460.893485,37.9695489 C462.328688,40.5420524 463.046289,43.7016418 463.316107,46.9999969 L463.539998,46.9999969 C470.21082,47.005334 474.074385,40.1150809 477.455722,35.3009769 Z" id="Path" fill="#000000" opacity="0.05"></path>
                    <circle id="Oval" fill="#F7BBC3" cx="464" cy="27" r="18"></circle>
                    <path d="M484.364532,32.5872452 C485.987811,29.0436526 487.178216,25.1984776 486.978011,21.2779071 C486.777807,17.3573365 485.030077,13.4313806 481.783519,11.2556794 C480.106131,10.130131 478.125731,9.52696627 476.37259,8.50374044 C475.014446,7.70131598 473.81322,6.66193395 472.520008,5.75718691 C466.061892,1.3878643 457.750225,0.786119548 450.724784,4.17926498 C447.44035,5.7948847 444.637489,8.26678288 441.526204,10.2270681 C438.41492,12.1873534 434.773365,13.7006506 431.142631,13.1190275 C430.520374,14.8423552 432.051667,16.5441413 433.46392,17.7235437 C436.14233,19.9584843 439.177861,22.1880395 442.6625,22.2634351 C444.015232,22.2957475 445.438306,22.004936 446.666587,22.5704029 C447.49409,23.0236198 448.196588,23.6728622 448.711919,24.4606779 C450.393887,26.6835644 451.818742,29.0880662 452.959498,31.6286441 C453.424838,32.6680261 453.901,33.7828038 454.864145,34.4128954 C456.487424,35.4361213 458.55981,34.5852282 460.464457,34.5098326 C463.429647,34.3967392 466.091824,36.2493165 468.288661,38.2419142 C470.485499,40.2345119 472.568706,42.4963795 475.322869,43.5465323 C477.389844,44.3274152 481.523795,44.3004882 482.578926,41.8393608 C482.973924,40.9130721 482.216394,38.9258599 482.37331,37.7895407 C482.665501,35.9962028 483.607002,34.2405627 484.364532,32.5872452 Z" id="Path" fill="#000000" opacity="0.1"></path>
                    <path d="M484.364532,32.5872452 C485.987811,29.0436526 487.178216,25.1984776 486.978011,21.2779071 C486.777807,17.3573365 485.030077,13.4313806 481.783519,11.2556794 C480.106131,10.130131 478.125731,9.52696627 476.37259,8.50374044 C475.014446,7.70131598 473.81322,6.66193395 472.520008,5.75718691 C466.061892,1.3878643 457.750225,0.786119548 450.724784,4.17926498 C447.44035,5.7948847 444.637489,8.26678288 441.526204,10.2270681 C438.41492,12.1873534 434.773365,13.7006506 431.142631,13.1190275 C430.520374,14.8423552 432.051667,16.5441413 433.46392,17.7235437 C436.14233,19.9584843 439.177861,22.1880395 442.6625,22.2634351 C444.015232,22.2957475 445.438306,22.004936 446.666587,22.5704029 C447.49409,23.0236198 448.196588,23.6728622 448.711919,24.4606779 C450.393887,26.6835644 451.818742,29.0880662 452.959498,31.6286441 C453.424838,32.6680261 453.901,33.7828038 454.864145,34.4128954 C456.487424,35.4361213 458.55981,34.5852282 460.464457,34.5098326 C463.429647,34.3967392 466.091824,36.2493165 468.288661,38.2419142 C470.485499,40.2345119 472.568706,42.4963795 475.322869,43.5465323 C477.389844,44.3274152 481.523795,44.3004882 482.578926,41.8393608 C482.973924,40.9130721 482.216394,38.9258599 482.37331,37.7895407 C482.665501,36.0015882 483.607002,34.2405627 484.364532,32.5872452 Z" id="Path" fill="#9B6C7A"></path>
                    <polygon id="Path" fill="#71A4FC" points="365 313 82 313 82 136 118.192079 136 133.081978 154.416185 365 154.416185"></polygon>
                    <path d="M99,329.360579 C99,329.360579 86.770838,326.844483 83.5090056,323.485969 C80.2471733,320.127455 65.5743462,314.252845 63.94343,318.464935 C62.3125139,322.677025 41.9341894,336.931183 55.8159409,339.452858 C69.6976924,341.974533 88.4234274,342.800214 92.503427,341.126536 C96.5834266,339.452858 99,329.360579 99,329.360579 Z" id="Path" fill="#A8A8A8"></path>
                    <path d="M55.7833508,338.127905 C69.646931,340.503592 88.3990763,341.288465 92.4801067,339.708185 C95.5855921,338.501905 97.7426307,332.702278 98.5935229,330 L99,330.084282 C99,330.084282 96.5557175,339.597565 92.4963658,341.177845 C88.4370141,342.758125 69.6631901,341.967985 55.7996099,339.597565 C51.7998749,338.912777 50.6563192,337.300892 51.0844751,335.257064 C51.4096568,336.595034 52.8025185,337.616948 55.7833508,338.127905 Z" id="Path" fill="#000000" opacity="0.2"></path>
                    <path d="M351,353.308943 C351,353.308943 332.411904,349.579307 327.450399,344.610067 C322.488895,339.640827 300.186419,330.941951 297.708366,337.156207 C295.230313,343.370464 264.235756,364.492439 285.291108,368.222076 C306.346459,371.951712 334.862963,373.191315 341.060794,370.706696 C347.258626,368.222076 351,353.308943 351,353.308943 Z" id="Path" fill="#A8A8A8"></path>
                    <path d="M285.306742,365.851535 C306.364004,369.616292 334.883096,370.867568 341.08149,368.359551 C345.800476,366.447121 349.083249,357.267453 350.379081,353 L351,353.131138 C351,353.131138 347.279884,368.162844 341.070691,370.687253 C334.861499,373.211662 306.364004,371.943993 285.295944,368.179236 C279.210935,367.086419 277.472361,364.540154 278.131076,361.316342 C278.660207,363.420016 280.776732,365.04285 285.306742,365.851535 Z" id="Path" fill="#000000" opacity="0.2"></path>
                    <rect id="Rectangle" fill="#000000" opacity="0.1" x="191" y="218" width="62" height="11"></rect>
                </g>
            </g>
        </g>
    </g>
</svg>