<?xml version="1.0" encoding="UTF-8"?>
<svg width="558px" height="413px" viewBox="0 0 558 413" version="1.1" xmlns="http://www.w3.org/2000/svg" xmlns:xlink="http://www.w3.org/1999/xlink">
    <!-- Generator: Sketch 52.2 (67145) - http://www.bohemiancoding.com/sketch -->
    <title>projectPlanning</title>
    <desc>Created with Sketch.</desc>
    <defs>
        <linearGradient x1="50%" y1="100%" x2="50%" y2="0%" id="linearGradient-1">
            <stop stop-color="#808080" stop-opacity="0.25" offset="0%"></stop>
            <stop stop-color="#808080" stop-opacity="0.12" offset="54%"></stop>
            <stop stop-color="#808080" stop-opacity="0.1" offset="100%"></stop>
        </linearGradient>
        <linearGradient x1="50.0108389%" y1="100%" x2="50.0108389%" y2="0%" id="linearGradient-2">
            <stop stop-color="#808080" stop-opacity="0.25" offset="0%"></stop>
            <stop stop-color="#808080" stop-opacity="0.12" offset="54%"></stop>
            <stop stop-color="#808080" stop-opacity="0.1" offset="100%"></stop>
        </linearGradient>
        <linearGradient x1="49.9891611%" y1="100%" x2="49.9891611%" y2="0%" id="linearGradient-3">
            <stop stop-color="#808080" stop-opacity="0.25" offset="0%"></stop>
            <stop stop-color="#808080" stop-opacity="0.12" offset="54%"></stop>
            <stop stop-color="#808080" stop-opacity="0.1" offset="100%"></stop>
        </linearGradient>
        <linearGradient x1="49.9891611%" y1="100.022391%" x2="49.9891611%" y2="0%" id="linearGradient-4">
            <stop stop-color="#808080" stop-opacity="0.25" offset="0%"></stop>
            <stop stop-color="#808080" stop-opacity="0.12" offset="54%"></stop>
            <stop stop-color="#808080" stop-opacity="0.1" offset="100%"></stop>
        </linearGradient>
        <linearGradient x1="50.0108389%" y1="100.022391%" x2="50.0108389%" y2="0%" id="linearGradient-5">
            <stop stop-color="#808080" stop-opacity="0.25" offset="0%"></stop>
            <stop stop-color="#808080" stop-opacity="0.12" offset="54%"></stop>
            <stop stop-color="#808080" stop-opacity="0.1" offset="100%"></stop>
        </linearGradient>
        <linearGradient x1="50.025523%" y1="99.9467204%" x2="50.025523%" y2="-0.00589895769%" id="linearGradient-6">
            <stop stop-color="#808080" stop-opacity="0.25" offset="0%"></stop>
            <stop stop-color="#808080" stop-opacity="0.12" offset="54%"></stop>
            <stop stop-color="#808080" stop-opacity="0.1" offset="100%"></stop>
        </linearGradient>
        <linearGradient x1="49.9892825%" y1="99.9982216%" x2="49.9892825%" y2="0.0034863853%" id="linearGradient-7">
            <stop stop-color="#808080" stop-opacity="0.25" offset="0%"></stop>
            <stop stop-color="#808080" stop-opacity="0.12" offset="54%"></stop>
            <stop stop-color="#808080" stop-opacity="0.1" offset="100%"></stop>
        </linearGradient>
    </defs>
    <g id="Page-1" stroke="none" stroke-width="1" fill="none" fill-rule="evenodd">
        <g id="Illustrations" transform="translate(0.000000, -1974.000000)">
            <g id="projectPlanning" transform="translate(0.000000, 1974.000000)">
                <g id="Group">
                    <rect id="Rectangle" fill="url(#linearGradient-1)" x="0" y="0" width="558" height="237"></rect>
                    <rect id="Rectangle" fill="#EEEEEE" x="6" y="2" width="546" height="233"></rect>
                    <rect id="Rectangle" fill="url(#linearGradient-2)" x="341" y="88" width="29" height="28"></rect>
                    <rect id="Rectangle" fill="#F5F5F5" x="342" y="89" width="28" height="27"></rect>
                    <rect id="Rectangle" fill="url(#linearGradient-2)" x="171" y="180" width="29" height="28"></rect>
                    <rect id="Rectangle" fill="#F5F5F5" x="172" y="181" width="28" height="27"></rect>
                    <rect id="Rectangle" fill="url(#linearGradient-3)" x="425" y="81" width="29" height="28"></rect>
                    <rect id="Rectangle" fill="#F5F5F5" x="425" y="82" width="28" height="27"></rect>
                    <rect id="Rectangle" fill="url(#linearGradient-4)" x="341" y="162" width="29" height="28"></rect>
                    <rect id="Rectangle" fill="#F5F5F5" x="342" y="162" width="28" height="27"></rect>
                    <rect id="Rectangle" fill="url(#linearGradient-5)" x="157" y="20" width="29" height="28"></rect>
                    <rect id="Rectangle" fill="#F5F5F5" x="157" y="21" width="28" height="27"></rect>
                    <rect id="Rectangle" fill="url(#linearGradient-2)" x="439" y="15" width="29" height="28"></rect>
                    <rect id="Rectangle" fill="#F5F5F5" x="440" y="15" width="28" height="27"></rect>
                    <rect id="Rectangle" fill="url(#linearGradient-2)" x="508" y="116" width="29" height="28"></rect>
                    <rect id="Rectangle" fill="#F5F5F5" x="508" y="117" width="28" height="27"></rect>
                    <rect id="Rectangle" fill="url(#linearGradient-2)" x="53" y="10" width="29" height="28"></rect>
                    <rect id="Rectangle" fill="#F5F5F5" x="53" y="11" width="28" height="27"></rect>
                    <rect id="Rectangle" fill="url(#linearGradient-2)" x="380" y="35" width="29" height="28"></rect>
                    <rect id="Rectangle" fill="#1D5DCC" x="380" y="35" width="28" height="27"></rect>
                    <rect id="Rectangle" fill="url(#linearGradient-5)" x="204" y="95" width="29" height="28"></rect>
                    <rect id="Rectangle" fill="#1D5DCC" x="205" y="95" width="28" height="27"></rect>
                    <rect id="Rectangle" fill="url(#linearGradient-5)" x="302" y="126" width="29" height="28"></rect>
                    <rect id="Rectangle" fill="#1D5DCC" x="303" y="126" width="28" height="27"></rect>
                    <rect id="Rectangle" fill="url(#linearGradient-2)" x="336" y="20" width="29" height="28"></rect>
                    <rect id="Rectangle" fill="#FFFFA5" x="336" y="21" width="28" height="27"></rect>
                    <rect id="Rectangle" fill="url(#linearGradient-5)" x="387" y="144" width="29" height="28"></rect>
                    <rect id="Rectangle" fill="#FFFFA5" x="387" y="145" width="28" height="27"></rect>
                    <rect id="Rectangle" fill="url(#linearGradient-2)" x="212" y="20" width="29" height="28"></rect>
                    <rect id="Rectangle" fill="#FFFFA5" x="212" y="21" width="28" height="27"></rect>
                    <rect id="Rectangle" fill="url(#linearGradient-3)" x="251" y="174" width="29" height="28"></rect>
                    <rect id="Rectangle" fill="#FFFFA5" x="251" y="174" width="28" height="27"></rect>
                    <path d="M174.30536,92.8792416 L174.30536,94.579928 L169.409978,94.1515596 L169.409978,104.784046 L156.558806,123.107983 L155.746083,122.641253 L154,124.770308 L170.597314,135 L170.597314,131.163865 L169.663953,130.6332 C170.825892,126.413452 175.581588,109.585608 178.299128,107.354256 C178.299128,107.354256 183.19451,103.952884 185.861256,99.2727994 C188.528001,94.5927151 187.207327,78.4234076 174.30536,92.8792416 Z" id="Path" fill="url(#linearGradient-6)"></path>
                    <path d="M148.966333,133.412252 C148.966333,133.412252 131.404628,129.821355 121.74569,126.035846 C117.231139,124.256502 112.445265,123.2649 107.595974,123.104117 L97.0589509,122.796506 L91.8029836,119.745499 L93.4462574,115.639823 C93.6093303,115.570767 93.7724033,115.495433 93.9292043,115.413822 L94.0797331,114.534931 C94.9278262,114.335024 95.7651847,114.091967 96.5885481,113.806707 C96.3313946,115.853267 109.182799,105.26891 109.182799,105.26891 L108.800205,105.463522 L108.750029,104.835742 L108.605772,104.911076 C114.577277,96.7881296 114.748498,85.7694674 109.03227,77.4645689 L109.439953,77.100457 L109.439953,66.924156 L109.007182,66.5537663 L109.007182,66.5098217 C100.314138,58.6751372 88.359635,59.3029164 79.7167675,61.2804209 C73.2390563,62.683252 68.3646681,68.0462166 67.5803751,74.6332847 C56.0460983,77.6780139 59.8971292,83.5289161 59.7152402,85.795199 C58.8183388,96.8190019 62.4874807,103.303961 66.4764965,107.058081 C68.1442027,108.717213 70.0803084,110.082009 72.2028666,111.094701 L69.6940517,115.978823 L68.9539513,115.978823 L66.896723,121.829726 L66.7963704,121.829726 L64.557253,123.298729 C50.6458741,132.338749 43.6776405,148.472675 46.6944905,164.393156 C46.6944905,164.393156 59.2385653,188.079265 55.324814,211.771653 C54.0202302,219.731893 54.5658974,224.60346 55.8704812,227.566578 C55.5000291,230.781706 54.5814516,233.909433 53.154689,236.813765 C48.4067567,246.418787 48.4067567,256.438143 54.4467287,268.127392 L56.171539,328.664141 C56.171539,328.664141 58.3291199,357.052317 56.171539,362.896941 C54.0139581,368.741566 57.0370802,396.715407 57.0370802,396.715407 L56.6043096,396.715407 L56.6043096,412.165054 L88.9680227,413 C88.9680227,413 96.4944676,409.534659 97.8680437,406.923097 L114.118893,411.756997 C114.118893,411.756997 132.000471,408.775046 121.538713,404.656814 C113.730026,401.580696 111.791967,397.198797 111.30902,395.164793 L136.886389,324.068797 C136.886389,324.068797 132.138456,263.532048 114.877809,242.65839 L113.127911,230.347639 L113.366248,230.347639 L117.03539,158.473198 L117.336448,158.510865 L117.248639,158.510865 C126.699056,159.969662 136.327422,159.825348 145.729961,158.083975 C148.543066,157.599194 151.304443,156.850942 153.97769,155.849081 L154.466909,155.660747 L154.523358,155.660747 L154.567262,155.660747 C156.573564,154.872733 158.470642,153.830492 160.212096,152.559518 L171,136.613926 L154.573534,125.671734 L148.966333,133.412252 Z M81.2283285,377.925976 L89.4133373,322.430294 L89.4133373,294.010729 L104.083633,323.654463 L88.2780985,387.888832 L87.4501896,387.662831 L83.8061359,400.312582 C82.6230326,399.37456 81.7186233,398.13067 81.1906963,396.715407 L81.2283285,377.925976 Z" id="Shape" fill="url(#linearGradient-7)" fill-rule="nonzero"></path>
                    <rect id="Rectangle" fill="url(#linearGradient-2)" x="296" y="60" width="29" height="28"></rect>
                    <rect id="Rectangle" fill="#FF69B4" x="297" y="60" width="28" height="27"></rect>
                    <rect id="Rectangle" fill="#000000" opacity="0.1" x="154" y="71" width="29" height="28"></rect>
                    <rect id="Rectangle" fill="url(#linearGradient-4)" x="150" y="69" width="29" height="28"></rect>
                    <rect id="Rectangle" fill="#FF69B4" x="151" y="69" width="28" height="27"></rect>
                    <rect id="Rectangle" fill="url(#linearGradient-2)" x="508" y="42" width="29" height="28"></rect>
                    <rect id="Rectangle" fill="#FF69B4" x="508" y="42" width="28" height="27"></rect>
                    <rect id="Rectangle" fill="url(#linearGradient-4)" x="453" y="174" width="29" height="28"></rect>
                    <rect id="Rectangle" fill="#FF69B4" x="454" y="175" width="28" height="27"></rect>
                    <path d="M46,139 L50,161" id="Path" fill="#333333"></path>
                    <path d="M168.326395,95.9054205 L168.326395,106.157505 L156,124.051825 L168.326395,132 C168.326395,132 173.808994,111.08375 176.758255,108.617506 C176.758255,108.617506 181.396407,105.333342 183.923444,100.825422 C186.450481,96.3175018 185.183812,80.727091 172.964548,94.6754201 L172.964548,95.7493291 L168.326395,95.9054205 Z" id="Path" fill="#FDA57D"></path>
                    <path d="M70.1901263,120.720669 L75.0620647,110.945847 C75.3536753,110.362744 75.9355289,109.981895 76.5853322,109.948803 L95.1037337,109.002242 C95.7144557,108.971792 96.2990893,109.253131 96.6573815,109.749895 C97.0156736,110.246658 97.0989857,110.891408 96.8787811,111.463301 L92.1012601,123.84432 C91.8101276,124.596113 91.0582305,125.064343 90.2569733,124.992815 L71.6441544,123.333177 C71.0495516,123.279383 70.5198581,122.934551 70.2289582,122.411879 C69.9380583,121.889208 69.9235239,121.256205 70.1901263,120.720669 Z" id="Path" fill="#FDA57D"></path>
                    <polygon id="Path" fill="#EDEEF9" points="71.2157474 117 68 126 101 124.869625 88.3235237 117.608191"></polygon>
                    <polygon id="Path" fill="#EDEEF9" points="153 126.066142 154.685897 124 169 132.277165 169 136"></polygon>
                    <path d="M58.425833,217 C59.7151303,223.365795 58.9542805,229.977771 56.25308,235.881769 C51.7259897,245.369748 51.7259897,255.27216 57.5053872,266.81974 L59.1521711,326.63608 C59.1521711,326.63608 61.2059549,354.685585 59.1521711,360.462515 C57.0983874,366.239445 59.9724323,393.874519 59.9724323,393.874519 L83.0086225,393.874519 L83.0086225,375.312992 L90.8230192,320.450997 L90.8230192,292.395212 L104.81129,321.681735 L88.7254047,389.334605 L109.70155,398 L136,322.096167 C136,322.096167 131.47291,262.279827 115.023855,241.658699 L111.936918,219.178907 L58.425833,217 Z" id="Path" fill="#6C63FF"></path>
                    <path d="M59,409.158223 L59,394 L82.7264836,394 C82.7264836,394 84.3927226,400.14809 95.213773,401.395168 C106.034823,402.642245 90.2213914,410 90.2213914,410 L59,409.158223 Z" id="Path" fill="#333333"></path>
                    <path d="M85,399.826695 L89.1134208,385 L111.869723,391.330783 C111.869723,391.330783 111.800325,397.788183 121.844137,401.89053 C131.88795,405.992878 114.746594,409 114.746594,409 L85,399.826695 Z" id="Path" fill="#333333"></path>
                    <path d="M112.584444,221.151432 L59,219 C59.6634742,222.171297 59.8009924,225.428851 59.407129,228.644137 C61.8561667,234.370927 67.1175265,232.803988 67.1175265,232.803988 L114,231.373845 L112.584444,221.151432 Z" id="Path" fill="#000000" opacity="0.1"></path>
                    <path d="M68.7689591,122 L66.6359671,123.451767 C53.4482758,132.426582 46.7876402,148.385171 49.6596027,164.126386 C49.6596027,164.126386 61.5755844,187.55577 57.8788153,210.97887 C54.1820461,234.40197 66.0980278,230.800834 66.0980278,230.800834 L113.148954,229.349066 L116.639304,158.269039 C116.639304,158.269039 144.993711,162.322675 157.729112,152.411693 L168,136.643365 L152.362229,125.833671 L147.057897,133.488443 C147.057897,133.488443 130.319227,129.937584 121.136727,126.191899 C116.846725,124.434293 112.280973,123.453416 107.650713,123.294649 L68.7689591,122 Z" id="Path" fill="#333333"></path>
                    <path d="M69.1969169,237 C69.1969169,237 66.2682185,251.304419 83,275" id="Path" fill="#000000" opacity="0.1"></path>
                    <path d="M118,158.097736 C118,158.097736 137.369446,152 145.847035,152 C154.324623,152 152.911692,155.481105 152.911692,155.481105 C152.911692,155.481105 139.390553,161.149506 118,158.097736 Z" id="Path" fill="#000000" opacity="0.1"></path>
                    <path d="M95.2052301,110.002732 L87.605552,110.978187 C87.3633312,110.978187 87.1453325,111.335854 87,111.836588 C88.6713236,115.088107 90.7604782,117 93.0555204,117 C93.8645769,116.989508 94.6573254,116.754271 95.3566181,116.317181 L95.9621702,112.538916 C96.1256692,111.277327 95.7381159,109.931198 95.2052301,110.002732 Z" id="Path" fill="#000000" opacity="0.1"></path>
                    <circle id="Oval" fill="#FDA57D" cx="89" cy="92" r="24"></circle>
                    <path d="M110,68.354279 L110,78.2836821 L108.777066,79.3821224 C107.722261,80.3312359 107.233904,81.741303 107.481441,83.1230676 C107.728979,84.5048321 108.678294,85.6678509 110,86.208587 C110,86.208587 107.978673,102.058397 105.450431,108.003627 C105.450431,108.003627 101.521834,108.425626 102.415273,105.521276 C105.703889,94.8719912 99.1266573,96.8330483 97.6122465,98.8313407 C96.0978357,100.829633 97.8657044,106.01154 97.8657044,106.01154 C97.8657044,106.01154 102.668731,114.699768 77.3799719,112.701476 C77.3799719,112.701476 60.6897711,109.232391 62.4576397,87.1891156 C62.6350602,84.9798234 58.915566,79.2642107 70.0613759,76.2915956 C70.7397379,69.9536466 75.4330646,64.7273921 81.7647931,63.259254 C90.0782113,61.3168145 101.610544,60.7024327 110,68.354279 Z" id="Path" fill="#000000" opacity="0.1"></path>
                    <path d="M109,68.354279 L109,78.2836821 L107.777066,79.3821224 C106.722261,80.3312359 106.233904,81.741303 106.481441,83.1230676 C106.728979,84.5048321 107.678294,85.6678509 109,86.208587 C109,86.208587 106.978673,102.058397 104.450431,108.003627 C104.450431,108.003627 100.521834,108.425626 101.415273,105.521276 C104.703889,94.8719912 98.1266573,96.8330483 96.6122465,98.8313407 C95.0978357,100.829633 96.8657044,106.01154 96.8657044,106.01154 C96.8657044,106.01154 101.668731,114.699768 76.3799719,112.701476 C76.3799719,112.701476 59.6897711,109.232391 61.4576397,87.1891156 C61.6350602,84.9798234 57.915566,79.2642107 69.0613759,76.2915956 C69.7397379,69.9536466 74.4330646,64.7273921 80.7647931,63.259254 C89.0845477,61.3168145 100.610544,60.7024327 109,68.354279 Z" id="Path" fill="#72351C"></path>
                </g>
            </g>
        </g>
    </g>
</svg>