<?xml version="1.0" encoding="UTF-8"?>
<svg width="543px" height="345px" viewBox="0 0 543 345" version="1.1" xmlns="http://www.w3.org/2000/svg" xmlns:xlink="http://www.w3.org/1999/xlink">
    <!-- Generator: Sketch 52.2 (67145) - http://www.bohemiancoding.com/sketch -->
    <title>whiteBoardCollaboration</title>
    <desc>Created with Sketch.</desc>
    <defs>
        <linearGradient x1="50%" y1="100.062687%" x2="50%" y2="0.0376663924%" id="linearGradient-1">
            <stop stop-color="#808080" stop-opacity="0.25" offset="0%"></stop>
            <stop stop-color="#808080" stop-opacity="0.12" offset="54%"></stop>
            <stop stop-color="#808080" stop-opacity="0.1" offset="100%"></stop>
        </linearGradient>
        <linearGradient x1="49.9102334%" y1="83%" x2="49.9102334%" y2="6%" id="linearGradient-2">
            <stop stop-color="#808080" stop-opacity="0.25" offset="0%"></stop>
            <stop stop-color="#808080" stop-opacity="0.12" offset="54%"></stop>
            <stop stop-color="#808080" stop-opacity="0.1" offset="100%"></stop>
        </linearGradient>
        <linearGradient x1="50%" y1="100%" x2="50%" y2="0%" id="linearGradient-3">
            <stop stop-color="#808080" stop-opacity="0.25" offset="0%"></stop>
            <stop stop-color="#808080" stop-opacity="0.12" offset="54%"></stop>
            <stop stop-color="#808080" stop-opacity="0.1" offset="100%"></stop>
        </linearGradient>
        <linearGradient x1="49.961322%" y1="99.9755388%" x2="49.961322%" y2="-0.00690549619%" id="linearGradient-4">
            <stop stop-color="#808080" stop-opacity="0.25" offset="0%"></stop>
            <stop stop-color="#808080" stop-opacity="0.12" offset="54%"></stop>
            <stop stop-color="#808080" stop-opacity="0.1" offset="100%"></stop>
        </linearGradient>
        <linearGradient x1="0.0188877165%" y1="50.0171143%" x2="100.001015%" y2="50.0171143%" id="linearGradient-5">
            <stop stop-color="#808080" stop-opacity="0.25" offset="0%"></stop>
            <stop stop-color="#808080" stop-opacity="0.12" offset="54%"></stop>
            <stop stop-color="#808080" stop-opacity="0.1" offset="100%"></stop>
        </linearGradient>
    </defs>
    <g id="Page-1" stroke="none" stroke-width="1" fill="none" fill-rule="evenodd">
        <g id="Illustrations" transform="translate(-1356.000000, -1937.000000)">
            <g id="whiteBoardCollaboration" transform="translate(1356.000000, 1937.000000)">
                <g id="Group">
                    <g opacity="0.5" transform="translate(81.000000, 0.000000)" id="Path">
                        <path d="M46.3647059,33.104186 C46.9529412,30.4117829 47.2882353,28.2142636 47.0470588,27.1066667 L46.8058824,27.1420155 L47.1764706,26.9770543 L48.1764706,26.052093 L48.2058824,26.052093 L49.0294118,25.292093 C51.8436687,27.0414613 55.2801343,27.473393 58.4387215,26.4747556 C61.5973086,25.4761181 64.1633368,23.1464028 65.4647059,20.095814 C66.4588235,20.6849612 67.2294118,20.9382946 67.3588235,20.419845 C68.1231158,18.0602317 68.5354038,15.6005357 68.5823529,13.1203101 C68.5861766,12.2389129 68.4934654,11.3597545 68.3058824,10.4986047 C67.0529412,4.9075969 61.3294118,1.16062016 55.6352941,0.630387597 C51.2647059,0.223875969 46.4882353,1.5848062 43.8411765,5.09023256 C41.5470588,8.13023256 37.0352941,10.1686822 35.0176471,13.3972093 C33.3882353,16.0012403 33.8941176,19.4948837 33.1235294,22.4936434 C32.2874182,23.0374155 31.4822457,23.6274795 30.7117647,24.2610853 C28.8738477,25.4896574 27.2899762,27.0619816 26.0470588,28.8917829 C24.0656953,31.202631 22.2456972,33.647493 20.6,36.2089922 C11.8588235,49.6592248 6.56470588,54.0306977 3.58235294,55.267907 L28.6529412,55.4269767 C32.8440628,63.3281515 38.6577881,70.2511871 45.7117647,75.7407752 L45.8647059,75.6582946 L45.9705882,75.7466667 L50.1235294,73.4431008 C46.0233272,66.9551926 42.7507883,59.9783904 40.3823529,52.6756589 C40.9705882,51.0260465 41.7294118,48.7872868 42.5411765,46.3010853 C48.3176471,54.0896124 56.7,62.5968992 68.1176471,67.7931783 L69.9705882,64.4939535 C69.9705882,64.4939535 55.2117647,51.6151938 46.3647059,33.104186 Z" fill="url(#linearGradient-1)"></path>
                        <path d="M3.59411765,55.3503876 L0.317647059,55.3503876 C0.317647059,55.3503876 1.21764706,56.3048062 3.59411765,55.3503876 Z" fill="url(#linearGradient-2)"></path>
                    </g>
                    <path d="M120.760252,42.6663048 C126.023406,50.1821143 134.040945,58.8708102 145.321639,64 L147,61.0181843 C147,61.0181843 127.116973,43.675804 121.298263,21 L120.713468,21.5076673 C115.754407,25.814086 115.754407,35.5006107 120.760252,42.6663048 Z" id="Path" fill="#4D8AF0"></path>
                    <path d="M120.760252,42.6663048 C126.023406,50.1821143 134.040945,58.8708102 145.321639,64 L147,61.0181843 C147,61.0181843 127.116973,43.675804 121.298263,21 L120.713468,21.5076673 C115.754407,25.814086 115.754407,35.5006107 120.760252,42.6663048 Z" id="Path" fill="#000000" opacity="0.05"></path>
                    <polygon id="Path" fill="#FDA57D" points="123.697233 18 120.033992 20.4125654 116 27.4366492 121.754941 30 126.652174 27.5183246 130 24.0125654"></polygon>
                    <path d="M119.239254,21.003029 C119.239254,21.003029 112.018997,20.4059386 102.206852,35.9780581 C88.1192496,58.3152126 84,53.5802852 84,53.5802852 L119.036763,53.8071796 C119.036763,53.8071796 126.829782,31.8223084 125.927249,27.5351988 C125.933035,27.5113152 119.192971,28.8786524 119.239254,21.003029 Z" id="Path" fill="#4D8AF0"></path>
                    <path d="M123,18.0129496 C123.42278,21.4381295 124.604247,25.2453237 127.123552,27 L129,25.057554 L123,18 L123,18.0129496 Z" id="Path" fill="#000000" opacity="0.1"></path>
                    <circle id="Oval" fill="#FDA57D" transform="translate(133.000000, 18.000000) rotate(-89.640000) translate(-133.000000, -18.000000) " cx="133" cy="18" r="10"></circle>
                    <path d="M144.843316,21.7922099 C145.680804,18.9407981 146.409054,15.9371547 145.735423,13.0096272 C144.552016,7.93914936 139.169033,4.54321735 133.810324,4.06310283 C129.69571,3.69423435 125.198764,4.92965099 122.710576,8.10894596 C120.5501,10.8608219 120.198112,14.584637 118.298592,17.5121646 C116.538654,20.2230551 113.534622,22.1259481 112.22984,25.0593307 C112.009533,25.4511623 111.944806,25.9070308 112.047777,26.3415878 C112.284459,27.0149192 113.115878,27.2491214 113.819853,27.4540483 C117.312918,28.479599 120.214488,30.8470174 121.842744,34 C121.642475,28.5196683 125.744952,23.8766096 129.616816,19.8658968 C131.437442,17.9922791 134.471818,15.2404032 137.202757,16.9910647 C137.572951,17.2721073 144.382091,23.3613647 144.843316,21.7922099 Z" id="Path" fill="#000000" opacity="0.1"></path>
                    <path d="M125.497118,34 C125.497118,34 127.664544,40.0265418 123,42" id="Path" fill="#1D5DCC"></path>
                    <rect id="Rectangle" fill="url(#linearGradient-3)" x="0" y="50" width="524" height="213"></rect>
                    <rect id="Rectangle" fill="#FFFFFF" x="4" y="53" width="516" height="207"></rect>
                    <path d="M126,73 L126,127.381356 L148.414747,127.381356 L148.414747,142 C154.903226,130.889831 164.341014,127.381356 164.341014,127.381356 L254,127.381356 L254,73 L126,73 Z" id="Path" fill="#1D5DCC"></path>
                    <path d="M39,162 L39,205.051546 L61.2478632,205.051546 L61.2478632,220 C67.6880342,208.639175 77.0555556,205.051546 77.0555556,205.051546 L176,205.051546 L176,162 L39,162 Z" id="Path" fill="#1D5DCC"></path>
                    <path d="M493,102 L493,145.051546 L470.752137,145.051546 L470.752137,160 C464.311966,148.639175 454.944444,145.051546 454.944444,145.051546 L356,145.051546 L356,102 L493,102 Z" id="Path" fill="#E0E0E0"></path>
                    <path d="M493,216 L493,239.606061 L484.774194,239.606061 L484.774194,254 C478.31106,243.060606 468.910138,239.606061 468.910138,239.606061 L238,239.606061 L238,216 L493,216 Z" id="Path" fill="#E0E0E0"></path>
                    <circle id="Oval" fill="#FFFFFF" cx="481.5" cy="228.5" r="4.5"></circle>
                    <circle id="Oval" fill="#FFFFFF" cx="470.5" cy="228.5" r="4.5"></circle>
                    <circle id="Oval" fill="#FFFFFF" cx="458.5" cy="228.5" r="4.5"></circle>
                    <circle id="Oval" fill="#FFFFFF" cx="447.5" cy="228.5" r="4.5"></circle>
                    <path d="M104.641904,43.1227506 C108.11452,54.9682719 115.282144,65.4252147 125.121015,73 L129,70.8727208 C129,70.8727208 112.484199,46.6324634 117.471465,23 L116.41137,23.2443094 C112.11817,24.225362 108.423166,26.9128839 106.196189,30.6742135 C103.969211,34.4355432 103.407,38.9383895 104.641904,43.1227506 Z" id="Path" fill="#000000" opacity="0.1"></path>
                    <path d="M104.647597,43.1369863 C108.119401,54.9768636 115.28535,65.4288239 125.121922,73 L129,70.8737344 C129,70.8737344 112.476016,46.6212031 117.486203,23 L116.426356,23.244193 C112.126394,24.2214181 108.424662,26.9101639 106.195057,30.6756775 C103.965451,34.4411911 103.405573,38.9497508 104.647597,43.1369863 Z" id="Path" fill="#4D8AF0"></path>
                    <path d="M144.843935,21.7922099 C145.680975,18.9407981 146.408835,15.9371547 145.735564,13.0096272 C144.552791,7.93914936 139.172688,4.54321735 133.816848,4.06310283 C129.704436,3.69423435 125.209897,4.92965099 122.72304,8.10894596 C120.56372,10.8608219 116.323932,12.7110193 114.42543,15.6385469 C112.666433,18.3494375 113.551997,22.120093 112.229717,25.0593307 C112.009527,25.4511623 111.944835,25.9070308 112.047752,26.3415878 C112.284306,27.0149192 113.115281,27.2491214 113.818879,27.4540483 C117.310075,28.479599 120.210092,30.8470174 121.837476,34 C121.637315,28.5196683 125.737596,23.8766096 129.607388,19.8658968 C131.427039,17.9922791 134.459791,15.2404032 137.189268,16.9910647 C137.577461,17.2662523 144.382957,23.3555097 144.843935,21.7922099 Z" id="Path" fill="#333333"></path>
                    <path d="M126,72.3712821 C126,72.3712821 131.575122,80.6707692 132.774908,77.1138462 C133.974693,73.5569231 129.987347,70 129.987347,70 L126,72.3712821 Z" id="Path" fill="#FDA57D"></path>
                    <ellipse id="Oval" fill="#FDA57D" transform="translate(130.500000, 19.500000) rotate(-63.430000) translate(-130.500000, -19.500000) " cx="130.5" cy="19.5" rx="2.5" ry="1.5"></ellipse>
                    <g opacity="0.5" transform="translate(497.000000, 219.000000)" fill="url(#linearGradient-4)" id="Path">
                        <path d="M29.1569231,5.41267606 C35.514359,15.9422535 37.1184615,24.0938028 37.1184615,24.0938028 C39.005641,-9.62450704 28.7735897,2.38394366 27.7828205,2.95183099 L27.7828205,2.91042254 L24.3623077,4.89211268 C22.9040002,3.42207335 20.9273948,2.58693465 18.86,2.56732394 C17.3955821,2.57164082 15.9630314,2.99656363 14.7317949,3.79183099 C12.2961538,3.85098592 10.35,5.09323944 10.35,6.63126761 C10.3523199,6.87971369 10.4044664,7.12515026 10.5033333,7.35295775 C8.2974118,9.78119622 7.60951863,13.2332362 8.71536864,16.3254638 C9.82121865,19.4176915 12.5398238,21.6440196 15.7815385,22.1121127 L16.6838462,28.548169 L15.2566667,29.6721127 C13.470966,31.0577165 12.3630529,33.1446446 12.2135897,35.4042254 C12.0779487,37.7704225 13.0569231,40.5152113 17.5212821,41.9112676 C17.5212821,41.9112676 17.4446154,42.7335211 17.2971795,44.0349296 L9.74846154,59.1785915 C9.74846154,59.1785915 6.72897436,66.1174648 9.96666667,66.324507 C14.6197436,65.5140845 13.8117949,63.6861972 14.4192308,62.0594366 L14.7730769,60.876338 L16.5423077,60.876338 C15.0974359,68.8030986 10.3794872,96.0616901 10.8512821,112.116338 L10.8512821,116.76 L10.5505128,119.061127 L1.85769231,121.675775 C0.806206837,121.993955 0.15282781,123.044739 0.330480025,124.131886 C0.508132241,125.219032 1.4617564,126.005603 2.55948718,125.970423 L14.8438462,125.562254 C16.019892,125.520895 16.9526789,124.55389 16.9551282,123.373521 L16.9551282,117.097183 L19.1666667,117.097183 L19.1666667,112.086761 L21.39,85.3546479 L21.6789744,84.6684507 L21.944359,88.1408451 L31.9405128,110.418592 L34.1638462,114.316901 L35.1310256,113.796338 L34.824359,117.458028 L30.7787179,121.007324 C30.0507916,121.64215 29.8232052,122.680238 30.2184615,123.562817 C30.4627955,124.10159 30.9137298,124.518525 31.4689377,124.719012 C32.0241456,124.919499 32.6365487,124.886537 33.1671795,124.627606 L44.1953846,119.185352 C45.2517133,118.662098 45.705334,117.393824 45.2215385,116.316338 L44.2484615,114.157183 C43.9637482,113.528812 43.3995182,113.072536 42.7269231,112.926761 L40.6392308,110.832676 L41.3587179,110.442254 L39.695641,106.543944 L29.6994872,83.1540845 L29.2866667,69.9861972 C32.4261527,68.1058149 34.0970385,64.4885618 33.4974359,60.8704225 L34.1402564,60.8704225 C34.1402564,60.8704225 32.7248718,52.5887324 31.9876923,43.6030986 L31.9169231,42.7276056 L31.9169231,41.3788732 C31.9169231,41.3788732 31.8402564,40.9529577 31.7105128,40.2667606 C30.9261538,31.3935211 29.7112821,24.2949296 23.0825641,23.508169 L23.0353846,23.5495775 L23.0353846,20.8107042 C25.7906424,18.8886545 27.4043783,15.7112516 27.3346154,12.3456338 C27.340317,10.5532436 26.8983187,8.78797198 26.0489744,7.21098592 L29.1451282,5.43633803 L29.1569231,5.41267606 Z"></path>
                    </g>
                    <ellipse id="Oval" fill="#795548" cx="516" cy="233.5" rx="8" ry="9.5"></ellipse>
                    <polygon id="Path" fill="#FDA57D" points="515 333 515 338 508 338 508.581204 333.742092"></polygon>
                    <path d="M530.58634,329.916935 L530,337 L530.393041,337 C533.172388,337.000354 535.855087,335.980668 537.931701,334.134578 L540,332.292981 L534.703608,327 L530.58634,329.916935 Z" id="Path" fill="#FDA57D"></path>
                    <polygon id="Path" fill="#4D8AF0" points="518.087922 299.862475 518.628911 306.764571 528.402378 328 536 324.284381 526.232478 301.984855 525.685544 285 517 285"></polygon>
                    <polygon id="Path" fill="#000000" opacity="0.05" points="518.087922 299.862475 518.628911 306.764571 528.402378 328 536 324.284381 526.232478 301.984855 525.685544 285 517 285"></polygon>
                    <path d="M516.877656,260 L507.306899,278.145633 C507.306899,278.145633 504.223537,284.806837 507.528901,285 C512.246446,284.221494 511.426271,282.465465 512.042944,280.902599 L518,261.58628 L516.877656,260 Z" id="Path" fill="#FDA57D"></path>
                    <circle id="Oval" fill="#FDA57D" cx="515.5" cy="234.5" r="8.5"></circle>
                    <polygon id="Path" fill="#FDA57D" points="520 247.758278 513.589984 251 512 240 520 240"></polygon>
                    <path d="M513.909994,279 C513.909994,279 507.450517,311.933257 508.037742,330 L516.076856,330 L518.220228,304.502909 L524.09248,290.689561 C524.09248,290.689561 532.131593,288.036281 529.453846,279 L513.909994,279 Z" id="Path" fill="#4D8AF0"></path>
                    <rect id="Rectangle" fill="#4D8AF0" x="508" y="329" width="8" height="6"></rect>
                    <rect id="Rectangle" fill="#FFFFFF" opacity="0.05" x="508" y="329" width="8" height="6"></rect>
                    <polygon id="Path" fill="#4D8AF0" points="528 328.263158 530.391441 333 538 328.866619 535.967275 324"></polygon>
                    <path d="M510.528156,337.078435 L500.494283,339.068687 C499.607265,339.323132 498.99976,340.105001 499,340.991853 C498.999683,341.535979 499.230047,342.056909 499.638311,342.435289 C500.046576,342.813668 500.597748,343.017065 501.165543,342.998877 L512.956365,342.624307 C514.086234,342.588114 514.98245,341.700052 514.981819,340.617283 L514.981819,338.448131 C514.981819,337.330011 515.209463,337.000166 514.053729,337.000166 L511.135209,337.000166 C510.929947,336.997636 510.725412,337.024007 510.528156,337.078435 Z" id="Path" fill="#333333"></path>
                    <path d="M519.424104,244 L511.919755,249.969613 C510.214007,251.308129 509.155533,253.319976 509.011093,255.498121 C508.883112,257.791864 509.819701,260.426728 514.066348,261.767685 C514.066348,261.767685 512.472401,278.953112 509.819701,280 L530,280 C530,280 528.644563,272.042477 527.946484,263.355661 C527.132059,253.333769 526.544509,244.864565 519.424104,244 Z" id="Path" fill="#EEEEEE"></path>
                    <path d="M520,254.745893 L525.042812,263.181111 L524.45387,282.153134 C524.45387,282.153134 521.656398,286.367856 523.895603,286.899027 C526.134807,287.430197 529.496682,285.84246 528.938414,282.684305 L528.938414,261.067976 C528.938414,261.067976 527.257477,252.107361 525.57654,250 L520,254.745893 Z" id="Path" fill="#FDA57D"></path>
                    <path d="M535.180027,332.111377 L527.684524,338.080969 C527.021671,338.726843 526.814882,339.785204 527.17598,340.683736 C527.396596,341.23565 527.807299,341.663138 528.31386,341.868119 C528.82042,342.0731 529.379354,342.037978 529.862421,341.770811 L539.889591,336.229836 C540.851086,335.699439 541.264534,334.407291 540.823765,333.310265 L539.93934,331.111268 C539.486072,329.986922 538.944362,329.74466 537.943856,330.254032 L535.180027,332.117589 C535.003142,332.198343 535.323746,331.968504 535.180027,332.111377 Z" id="Path" fill="#333333"></path>
                    <polygon id="Path" fill="#795548" points="525 227.867012 522.652482 229 521 226.208981 523.319149 225"></polygon>
                    <path d="M523,225.748498 C523,225.748498 536.401791,212.272446 533.619941,245 C531.315272,239.050339 528.23402,233.401512 524.449008,228.187021 L523,225.748498 Z" id="Path" fill="#795548"></path>
                    <ellipse id="Oval" fill="#795548" cx="517" cy="234" rx="7" ry="8"></ellipse>
                    <ellipse id="Oval" fill="#795548" cx="511.5" cy="228.5" rx="4.5" ry="2.5"></ellipse>
                    <g opacity="0.5" transform="translate(200.000000, 211.000000)" fill="url(#linearGradient-5)" id="Path">
                        <path d="M61.900566,25.5686036 C61.0173585,22.8954955 55.7649057,26.5068468 55.7649057,26.5068468 L55.3320755,27.0969369 L45.9735849,39.8251802 L23.1388679,26.9376126 L23.1388679,21.1665315 C25.3140787,20.9221137 27.2929307,19.7830262 28.6082521,18.0181875 C29.9235735,16.2533488 30.4587903,14.0191725 30.0875472,11.8431081 C31.2221527,11.2821856 32.2205822,10.4763621 33.0120755,9.48274775 C33.8075472,8.62711712 34.6615094,7.59445946 34.5796226,6.45558559 C34.5932247,6.27411056 34.583394,6.09162164 34.5503774,5.9127027 C34.2816771,4.953651 33.544152,4.20067784 32.5967925,3.9181982 C31.6659254,3.64710886 30.7154858,3.44981174 29.7541509,3.32810811 C27.490566,2.87963964 25.4433962,1.68765766 23.2324528,1.00905405 C22.2285247,0.70301764 21.1952666,0.505215626 20.15,0.418963964 C19.4021673,0.312250561 18.6397361,0.397490515 17.9332075,0.666801802 C17.2189885,1.08439846 16.5769389,1.61654223 16.0322642,2.24234234 C15.3014597,2.92822713 14.4584373,3.48124829 13.540566,3.87689189 C12.1718868,4.46698198 10.6160377,4.70301802 9.39943396,5.53504505 C9.05622222,5.74282191 8.76897024,6.03262001 8.56301887,6.37887387 C8.38640112,6.74538732 8.30968592,7.1527304 8.34075472,7.55905405 C8.33544478,7.92272965 8.36285273,8.28614129 8.42264151,8.64481982 C8.54934511,10.1899213 8.96827917,11.6962285 9.65679245,13.0822973 C10.341455,14.144018 11.1815461,15.0950106 12.1484906,15.9029279 L14.2249057,17.8207207 C14.6286404,18.26544 15.1130976,18.6279973 15.6520755,18.8887838 C15.6496613,18.5923129 15.7656027,18.3073337 15.9737736,18.0980631 L15.3011321,22.8187838 C14.0491549,22.435858 12.7489765,22.2371151 11.4407547,22.2286937 C9.68603774,22.2286937 7.89037736,22.5296396 7.11245283,23.7452252 C7.06766146,23.8187938 7.02855213,23.895733 6.9954717,23.9753604 C4.56226415,26.8904054 -1.01773585,36.3318468 2.26358491,59.2568468 C1.98283019,62.0597748 1.81320755,63.8359459 1.81320755,63.8359459 L1.81320755,64.1191892 L1.81320755,64.3316216 L1.84830189,64.3611261 L3.67320755,89.675991 L0.163773585,114.625 L0.94754717,114.625 L0.94754717,117.398423 L0.0643396226,117.398423 L0.0643396226,121.853604 C0.0643396226,121.853604 12.3473585,121.062883 14.1956604,118.313063 C15.7456604,116.011712 8.03075472,116.91455 5.36358491,117.292207 L5.36358491,115.628153 L5.41037736,115.628153 L5.41037736,114.68991 L6.34037736,114.68991 L9.84981132,97.7602252 C13.4820755,91.4226577 11.6045283,75.5846396 11.6045283,75.5846396 L16.020566,78.2577477 L19.53,96.8691892 L16.9564151,124.479505 L17.7401887,124.479505 L17.7401887,126.409099 L16.7107547,126.409099 L16.7107547,130.864279 C16.7107547,130.864279 28.9937736,130.073559 30.8420755,127.323739 C32.3862264,125.022387 24.6830189,125.925225 22.01,126.302883 L21.7116981,124.532613 L22.2498113,124.532613 L25.7592453,99.5836036 C27.5139623,92.8270721 25.1275472,72.9882432 24.8116981,70.4508559 L29.1926415,41.2709009 L29.1283019,41.1882883 L29.1926415,40.7752252 L46.8567925,47.0124775 C46.8567925,47.0124775 48.6115094,48.7827477 50.4364151,43.4719369 C52.1326415,38.5210811 56.7884906,31.8825676 57.3909434,31.0387387 L57.455283,30.9502252 C57.455283,30.9502252 62.7837736,28.2417117 61.900566,25.5686036 Z"></path>
                    </g>
                    <polygon id="Path" fill="#FDA57D" points="202 324.714286 202 329 206 329 206 323"></polygon>
                    <polygon id="Path" fill="#FDA57D" points="218 332.857143 218 338 222 337.142857 221.2 332"></polygon>
                    <path d="M209,237 C209,237 198.122213,244.529403 203.486771,274 L209,237 Z" id="Path" fill="#4D8AF0"></path>
                    <path d="M209,237 C209,237 198.122213,244.529403 203.486771,274 L209,237 Z" id="Path" fill="#000000" opacity="0.05"></path>
                    <polygon id="Path" fill="#000000" opacity="0.05" points="222 335 221.55287 332 218 333 218 335"></polygon>
                    <polygon id="Path" fill="#000000" opacity="0.05" points="202 327 206 327 206 324 202 325.995475"></polygon>
                    <polygon id="Path" fill="#FDA57D" points="215.888889 231 215 237.413031 223 242 223 232.832295"></polygon>
                    <path d="M201,325.463693 L204.495401,301.144929 L202.676366,276 L225.402418,282.072314 C225.402418,282.072314 228.220139,303.670634 226.371381,310.704841 L222.87598,335 L217.632878,335 L220.254429,308.10242 L216.759028,289.973995 L212.389776,287.371574 C212.389776,287.371574 214.23259,302.797259 210.642076,308.969894 L207.146675,325.457792 L201,325.463693 Z" id="Path" fill="#EEEEEE"></path>
                    <path d="M261.895734,238.917936 C260.968311,236.427725 255.454248,239.79318 255.454248,239.79318 L255,240.357854 L257.189222,244 L257.258621,243.915299 C257.258621,243.915299 262.823156,241.408147 261.895734,238.917936 Z" id="Path" fill="#FDA57D"></path>
                    <path d="M216.926877,235.605206 C216.926877,235.605206 209.954545,233.778994 208.211462,236.471184 C206.468379,239.163373 203,275.451964 203,275.451964 C203,275.451964 213.363636,284.111742 225.666008,281.513808 L230,252.942434 L216.926877,235.605206 Z" id="Path" fill="#000000" opacity="0.05"></path>
                    <path d="M246.660222,252.083345 L219.050329,236.767243 C217.054418,235.648307 214.808536,235.040884 212.516146,235 C210.769738,235 208.999568,235.29454 208.239227,236.472702 C206.492818,239.164802 203,275.452183 203,275.452183 C203,275.452183 213.383411,284.111671 225.709256,281.513825 L230.075278,252.931621 L247.563128,259.010936 C247.563128,259.010936 249.309537,260.742833 251.127228,255.594267 C252.802354,250.781476 257.405983,244.331041 258,243.506328 L255.879361,239.712647 L246.660222,252.083345 Z" id="Path" fill="#4D8AF0"></path>
                    <path d="M216,232.556876 C217.476022,234.73125 219.738475,236.001238 222.133838,235.999997 C222.423206,236.00025 222.712365,235.982112 223,235.945668 L223,233.996603 L216.070707,232 L216,232.556876 Z" id="Path" fill="#000000" opacity="0.05"></path>
                    <circle id="Oval" fill="#FDA57D" cx="222.5" cy="225.5" r="7.5"></circle>
                    <path d="M201,328.613165 L201,333 C201,333 212.121303,332.218129 213.815096,329.490532 C215.508888,326.762936 205.008462,328.613165 205.008462,328.613165 L201,328.613165 Z" id="Path" fill="#333333"></path>
                    <path d="M217,335.613165 L217,340 C217,340 228.121303,339.218129 229.815096,336.490532 C231.508888,333.762936 221.008462,335.613165 221.008462,335.613165 L217,335.613165 Z" id="Path" fill="#333333"></path>
                    <path d="M217.771026,229.982931 L220.846594,225.553757 C221.268547,224.876106 221.794612,224.270046 222.4052,223.758146 C223.030842,223.241398 223.863419,223.054752 224.647926,223.255375 C225.093042,223.438246 225.506634,223.690752 225.873394,224.003546 C227.021527,224.847484 228.437359,225.469962 229.835345,225.20062 C231.233331,224.931279 232.423106,223.788073 233.440364,222.692751 C234.285104,221.78896 235.195282,220.681666 234.963276,219.460651 C234.686821,218.527771 233.958772,217.799764 233.029891,217.527377 C232.108868,217.25447 231.168068,217.05435 230.216073,216.92884 C227.973347,216.485922 225.94478,215.306805 223.755594,214.642429 C222.762238,214.334886 221.739255,214.134251 220.703821,214.043892 C219.963239,213.938781 219.208272,214.023181 218.508686,214.289292 C217.802281,214.701937 217.16736,215.227545 216.628841,215.845488 C215.90489,216.523632 215.069602,217.070406 214.160058,217.461538 C212.803714,218.060075 211.2927,218.281533 210.061283,219.095544 C209.722784,219.298847 209.438891,219.582426 209.234389,219.921524 C208.981908,220.544328 208.931928,221.231578 209.091616,221.884726 C209.21786,223.410569 209.633867,224.897878 210.317084,226.266016 C210.993876,227.313368 211.82421,228.251711 212.779919,229.049213 L214.832281,230.946575 C215.232673,231.385867 215.713361,231.743514 216.248113,232 C216.15888,231.341609 217.384349,230.53957 217.771026,229.982931 Z" id="Path" fill="#000000" opacity="0.05"></path>
                    <path d="M217.771026,230.013518 L220.846594,225.585817 C221.268547,224.908391 221.794612,224.302533 222.4052,223.790803 C223.030842,223.274226 223.863419,223.087642 224.647926,223.288199 C225.093042,223.471009 225.506634,223.723431 225.873394,224.036121 C227.021527,224.879778 228.437359,225.50205 229.835345,225.232797 C231.233331,224.963545 232.423106,223.82072 233.440364,222.725761 C234.285104,221.822271 235.195282,220.715346 234.963276,219.494736 C234.697285,218.548387 233.967459,217.805293 233.029891,217.526204 C232.108868,217.253389 231.168068,217.053334 230.216073,216.927866 C227.973347,216.485096 225.94478,215.30637 223.755594,214.642215 C222.762238,214.334775 221.739255,214.134206 220.703821,214.043877 C219.963239,213.938802 219.208272,214.023174 218.508686,214.289196 C217.802281,214.701704 217.16736,215.227137 216.628841,215.844874 C215.90489,216.522793 215.069602,217.069385 214.160058,217.460387 C212.803714,218.058725 211.2927,218.28011 210.061283,219.09385 C209.722078,219.298767 209.438125,219.584368 209.234389,219.92554 C208.981908,220.548136 208.931928,221.235158 209.091616,221.888088 C209.21786,223.413424 209.633867,224.900239 210.317084,226.267922 C210.993876,227.314926 211.82421,228.252957 212.779919,229.050194 L214.832281,230.946925 C215.232673,231.386071 215.713361,231.743599 216.248113,232 C216.15888,231.371745 217.384349,230.569972 217.771026,230.013518 Z" id="Path" fill="#333333"></path>
                </g>
            </g>
        </g>
    </g>
</svg>