<svg width="103" height="77" viewBox="0 0 103 77" fill="none" xmlns="http://www.w3.org/2000/svg">
<path d="M90.8698 19.6772C90.8698 26.1833 85.5917 31.4593 79.0786 31.4593C72.5655 31.4593 67.2874 26.1833 67.2874 19.6772C67.2874 13.171 72.5655 7.89502 79.0786 7.89502C85.5917 7.89502 90.8698 13.171 90.8698 19.6772Z" stroke="black" stroke-width="3"/>
<rect x="79.0786" width="20.9214" height="20.9071" fill="white"/>
<line x1="79.0786" y1="19.4072" x2="92.3698" y2="19.4072" stroke="black" stroke-width="3"/>
<path d="M62.582 19.6938C62.582 26.1999 57.3038 31.4759 50.7907 31.4759C44.2777 31.4759 38.9995 26.1999 38.9995 19.6938C38.9995 13.1876 44.2777 7.91162 50.7907 7.91162C57.3038 7.91162 62.582 13.1876 62.582 19.6938Z" stroke="black" stroke-width="3"/>
<path d="M28.61 53.9758C27.278 53.9758 26.294 53.5858 25.658 52.8058C25.034 52.0258 24.722 51.0238 24.722 49.7998C24.722 48.5758 25.13 47.5438 25.946 46.7038C26.774 45.8638 27.8 45.4438 29.024 45.4438C30.248 45.4438 31.202 45.8278 31.886 46.5958C32.582 47.3518 32.93 48.3058 32.93 49.4578C32.93 50.6098 32.54 51.6538 31.76 52.5898C30.992 53.5138 29.942 53.9758 28.61 53.9758ZM28.682 46.2178C27.866 46.2178 27.272 46.5598 26.9 47.2438C26.528 47.9158 26.342 48.7558 26.342 49.7638C26.342 50.7598 26.57 51.5818 27.026 52.2298C27.482 52.8778 28.1 53.2018 28.88 53.2018C29.672 53.2018 30.266 52.8958 30.662 52.2838C31.07 51.6598 31.274 50.8438 31.274 49.8358C31.274 48.8158 31.046 47.9578 30.59 47.2618C30.146 46.5658 29.51 46.2178 28.682 46.2178ZM36.9468 46.6858L36.9288 46.9018V47.3338C37.2408 46.7218 37.6068 46.2538 38.0268 45.9298C38.4588 45.6058 38.8668 45.4438 39.2508 45.4438C39.6468 45.4438 39.9888 45.5578 40.2768 45.7858C40.5768 46.0138 40.7268 46.2718 40.7268 46.5598C40.7268 46.8358 40.6128 47.0518 40.3848 47.2078C40.1688 47.3518 39.9408 47.4238 39.7008 47.4238C39.2928 47.0038 38.8908 46.7938 38.4948 46.7938C37.9068 46.7938 37.3848 47.2378 36.9288 48.1258V52.5538L38.5848 52.9318C38.5848 53.1718 38.5608 53.3458 38.5128 53.4538C38.4648 53.5618 38.3748 53.6638 38.2428 53.7598H34.1568C34.1568 53.3638 34.2528 53.1298 34.4448 53.0578L35.4528 52.6438V46.9018L34.4448 46.4878C34.2528 46.4158 34.1568 46.1818 34.1568 45.7858C34.9728 45.6898 35.5788 45.6418 35.9748 45.6418C36.6228 45.6418 36.9468 45.9898 36.9468 46.6858ZM41.2545 53.7598C41.2545 53.3638 41.3505 53.1298 41.5425 53.0578L42.5505 52.6438V41.8078L41.5425 41.3938C41.3505 41.3218 41.2545 41.0878 41.2545 40.6918C42.0705 40.5958 42.6765 40.5478 43.0725 40.5478C43.7085 40.5478 44.0265 40.8718 44.0265 41.5198V52.5538L45.5025 52.9318C45.5025 53.1718 45.4785 53.3458 45.4305 53.4538C45.3825 53.5618 45.2925 53.6638 45.1605 53.7598H41.2545ZM46.5013 49.6378C46.5013 48.4738 46.8673 47.4838 47.5993 46.6678C48.3433 45.8518 49.2733 45.4438 50.3893 45.4438C51.1933 45.4438 51.8893 45.6958 52.4773 46.1998C53.1613 46.7758 53.5273 47.8198 53.5753 49.3318H48.1572C48.1572 50.4718 48.3973 51.3298 48.8773 51.9058C49.3693 52.4818 50.0113 52.7698 50.8033 52.7698C51.6073 52.7698 52.4113 52.4278 53.2153 51.7438L53.5213 52.1758C52.4533 53.3758 51.4033 53.9758 50.3713 53.9758C49.6513 53.9758 49.0273 53.8558 48.4993 53.6158C47.9833 53.3638 47.5813 53.0278 47.2933 52.6078C46.7653 51.7918 46.5013 50.8018 46.5013 49.6378ZM48.1753 48.5758L51.8653 48.5218C51.8533 47.7298 51.6913 47.1478 51.3793 46.7758C51.0793 46.4038 50.7013 46.2178 50.2453 46.2178C49.0213 46.2178 48.3313 47.0038 48.1753 48.5758ZM54.9915 49.6378C54.9915 48.4738 55.3575 47.4838 56.0895 46.6678C56.8335 45.8518 57.7635 45.4438 58.8795 45.4438C59.6835 45.4438 60.3795 45.6958 60.9675 46.1998C61.6515 46.7758 62.0175 47.8198 62.0655 49.3318H56.6475C56.6475 50.4718 56.8875 51.3298 57.3675 51.9058C57.8595 52.4818 58.5015 52.7698 59.2935 52.7698C60.0975 52.7698 60.9015 52.4278 61.7055 51.7438L62.0115 52.1758C60.9435 53.3758 59.8935 53.9758 58.8615 53.9758C58.1415 53.9758 57.5175 53.8558 56.9895 53.6158C56.4735 53.3638 56.0715 53.0278 55.7835 52.6078C55.2555 51.7918 54.9915 50.8018 54.9915 49.6378ZM56.6655 48.5758L60.3555 48.5218C60.3435 47.7298 60.1815 47.1478 59.8695 46.7758C59.5695 46.4038 59.1915 46.2178 58.7355 46.2178C57.5115 46.2178 56.8215 47.0038 56.6655 48.5758ZM67.1844 56.1898C67.1844 55.8898 67.2744 55.6438 67.4544 55.4518C67.6344 55.2718 67.8804 55.1818 68.1924 55.1818C68.5044 55.1818 68.7624 55.2718 68.9664 55.4518C68.9664 56.3398 69.1404 56.9698 69.4884 57.3418C69.8484 57.7138 70.4184 57.8998 71.1984 57.8998C71.9904 57.8998 72.6324 57.6958 73.1244 57.2878C73.6284 56.8798 73.8804 56.4538 73.8804 56.0098C73.8804 55.5658 73.8084 55.2418 73.6644 55.0378C73.5324 54.8458 73.3224 54.7198 73.0344 54.6598C72.7584 54.5998 72.4704 54.5638 72.1704 54.5518C69.7944 54.4558 68.6064 53.9698 68.6064 53.0938C68.6064 52.7578 68.7024 52.4398 68.8944 52.1398C69.0984 51.8278 69.3264 51.5758 69.5784 51.3838C68.1504 51.0358 67.4364 50.1118 67.4364 48.6118C67.4364 47.7358 67.7784 46.9918 68.4624 46.3798C69.1464 45.7558 70.0104 45.4438 71.0544 45.4438C71.8584 45.4438 72.5244 45.5818 73.0524 45.8578L75.3564 45.6418C75.4644 45.7738 75.5184 45.9058 75.5184 46.0378C75.5184 46.6018 75.0624 46.8838 74.1504 46.8838C74.4024 47.3158 74.5284 47.8498 74.5284 48.4858C74.5284 49.3138 74.1684 50.0278 73.4484 50.6278C72.7284 51.2158 71.8764 51.5098 70.8924 51.5098H70.4424C70.2144 51.8218 70.1004 52.1338 70.1004 52.4458C70.1004 52.6138 70.1664 52.7338 70.2984 52.8058C70.4424 52.8658 70.5624 52.9078 70.6584 52.9318C70.7544 52.9558 70.8684 52.9798 71.0004 53.0038C71.1444 53.0278 71.2644 53.0458 71.3604 53.0578C71.4564 53.0578 71.5764 53.0638 71.7204 53.0758C71.8644 53.0878 72.0684 53.1058 72.3324 53.1298C72.6084 53.1418 72.8724 53.1658 73.1244 53.2018C73.3764 53.2378 73.6764 53.3038 74.0244 53.3998C74.3844 53.4958 74.6484 53.6218 74.8164 53.7778C75.2484 54.1738 75.4644 54.7318 75.4644 55.4518C75.4644 56.4118 75.0564 57.1798 74.2404 57.7558C73.4364 58.3318 72.4224 58.6198 71.1984 58.6198C69.9744 58.6198 68.9964 58.3678 68.2644 57.8638C67.5444 57.3598 67.1844 56.8018 67.1844 56.1898ZM68.9844 48.4858C68.9844 49.1578 69.1524 49.6978 69.4884 50.1058C69.8364 50.5138 70.3344 50.7178 70.9824 50.7178C71.6424 50.7178 72.1344 50.5198 72.4584 50.1238C72.7944 49.7278 72.9624 49.1818 72.9624 48.4858C72.9624 47.7898 72.7824 47.2378 72.4224 46.8298C72.0624 46.4098 71.5644 46.1998 70.9284 46.1998C69.6324 46.1998 68.9844 46.9618 68.9844 48.4858ZM76.2388 53.7598C76.2388 53.3638 76.3348 53.1298 76.5268 53.0578L77.5348 52.6438V46.9018L76.5268 46.4878C76.3348 46.4158 76.2388 46.1818 76.2388 45.7858C77.0548 45.6898 77.6608 45.6418 78.0568 45.6418C78.6928 45.6418 79.0108 45.9658 79.0108 46.6138V52.5538L80.4868 52.9318C80.4868 53.1718 80.4628 53.3458 80.4148 53.4538C80.3668 53.5618 80.2768 53.6638 80.1448 53.7598H76.2388ZM78.0748 43.9138C77.7868 43.9138 77.5588 43.8298 77.3908 43.6618C77.2228 43.4818 77.1388 43.2478 77.1388 42.9598C77.1388 42.6718 77.2348 42.4378 77.4268 42.2578C77.6188 42.0658 77.8588 41.9698 78.1468 41.9698C78.4348 41.9698 78.6628 42.0598 78.8308 42.2398C79.0108 42.4078 79.1008 42.6358 79.1008 42.9238C79.1008 43.2118 78.9988 43.4518 78.7948 43.6438C78.6028 43.8238 78.3628 43.9138 78.0748 43.9138ZM81.1041 53.7598C81.1041 53.3638 81.2001 53.1298 81.3921 53.0578L82.4001 52.6438V41.8078L81.3921 41.3938C81.2001 41.3218 81.1041 41.0878 81.1041 40.6918C81.9201 40.5958 82.5261 40.5478 82.9221 40.5478C83.5581 40.5478 83.8761 40.8718 83.8761 41.5198V52.5538L85.3521 52.9318C85.3521 53.1718 85.3281 53.3458 85.2801 53.4538C85.2321 53.5618 85.1421 53.6638 85.0101 53.7598H81.1041ZM85.9909 53.7598C85.9909 53.3638 86.0869 53.1298 86.2789 53.0578L87.2869 52.6438V41.8078L86.2789 41.3938C86.0869 41.3218 85.9909 41.0878 85.9909 40.6918C86.8069 40.5958 87.4129 40.5478 87.8089 40.5478C88.4449 40.5478 88.7629 40.8718 88.7629 41.5198V52.5538L90.2389 52.9318C90.2389 53.1718 90.2149 53.3458 90.1669 53.4538C90.1189 53.5618 90.0289 53.6638 89.8969 53.7598H85.9909ZM91.0396 53.7598C91.0396 53.3638 91.1356 53.1298 91.3276 53.0578L92.3356 52.6438V46.9018L91.3276 46.4878C91.1356 46.4158 91.0396 46.1818 91.0396 45.7858C91.8556 45.6898 92.4616 45.6418 92.8576 45.6418C93.4936 45.6418 93.8116 45.9658 93.8116 46.6138V52.5538L95.2876 52.9318C95.2876 53.1718 95.2636 53.3458 95.2156 53.4538C95.1676 53.5618 95.0776 53.6638 94.9456 53.7598H91.0396ZM92.8756 43.9138C92.5876 43.9138 92.3596 43.8298 92.1916 43.6618C92.0236 43.4818 91.9396 43.2478 91.9396 42.9598C91.9396 42.6718 92.0356 42.4378 92.2276 42.2578C92.4196 42.0658 92.6596 41.9698 92.9476 41.9698C93.2356 41.9698 93.4636 42.0598 93.6316 42.2398C93.8116 42.4078 93.9016 42.6358 93.9016 42.9238C93.9016 43.2118 93.7996 43.4518 93.5956 43.6438C93.4036 43.8238 93.1636 43.9138 92.8756 43.9138ZM96.1749 51.9238C96.1749 51.6838 96.2469 51.4978 96.3909 51.3658C96.5469 51.2338 96.7509 51.1678 97.0029 51.1678C97.2669 51.1678 97.5189 51.2878 97.7589 51.5278C97.7589 52.1998 97.8909 52.6558 98.1549 52.8958C98.4189 53.1238 98.7789 53.2378 99.2349 53.2378C99.6909 53.2378 100.057 53.0998 100.333 52.8238C100.609 52.5478 100.747 52.2058 100.747 51.7978C100.747 51.3898 100.603 51.0718 100.315 50.8438C100.027 50.6038 99.6729 50.4118 99.2529 50.2678C98.8449 50.1238 98.4309 49.9678 98.0109 49.7998C97.6029 49.6198 97.2549 49.3498 96.9669 48.9898C96.6789 48.6178 96.5349 48.1438 96.5349 47.5678C96.5349 46.9798 96.7749 46.4818 97.2549 46.0738C97.7469 45.6538 98.4009 45.4438 99.2169 45.4438C100.045 45.4438 100.723 45.5878 101.251 45.8758C101.779 46.1638 102.043 46.5298 102.043 46.9738C102.043 47.1658 101.971 47.3398 101.827 47.4958C101.683 47.6398 101.491 47.7118 101.251 47.7118C101.023 47.7118 100.807 47.6398 100.603 47.4958C100.603 46.6198 100.171 46.1818 99.3069 46.1818C98.8869 46.1818 98.5449 46.3018 98.2809 46.5418C98.0289 46.7698 97.9029 47.0578 97.9029 47.4058C97.9029 47.7538 98.0529 48.0358 98.3529 48.2518C98.6529 48.4678 99.0189 48.6538 99.4509 48.8098C99.8949 48.9538 100.333 49.1218 100.765 49.3138C101.197 49.5058 101.563 49.7878 101.863 50.1598C102.163 50.5318 102.313 51.0238 102.313 51.6358C102.313 52.2358 102.031 52.7758 101.467 53.2558C100.915 53.7358 100.201 53.9758 99.3249 53.9758C98.4489 53.9758 97.7049 53.7898 97.0929 53.4178C96.4809 53.0458 96.1749 52.5478 96.1749 51.9238Z" fill="black"/>
</svg>
